<svg xmlns="http://www.w3.org/2000/svg" viewBox="0 0 490.02 306.88"><defs><style>.cls-1{fill:#f3ae5f;}</style></defs><title>icon-desa</title><g id="Layer_2" data-name="Layer 2"><g id="Layer_1-2" data-name="Layer 1"><path class="cls-1" d="M301.53,226.13H269.22a8.07,8.07,0,0,0-8.07,8.07v32.31a8.07,8.07,0,0,0,8.07,8.07h32.31a8.07,8.07,0,0,0,8.07-8.07V234.2A8.07,8.07,0,0,0,301.53,226.13Zm-8.08,32.3H277.3V242.28h16.15Z"/><path class="cls-1" d="M277.3,177.67A32.31,32.31,0,1,0,245,210,32.31,32.31,0,0,0,277.3,177.67ZM245,193.82a16.15,16.15,0,1,1,16.16-16.15A16.16,16.16,0,0,1,245,193.82Z"/><path class="cls-1" d="M480.46,90.32,354.64,1.48a8.09,8.09,0,0,0-9.32,0l-93.6,66.06-2.07-1.45a8.05,8.05,0,0,0-9.32,0l-2.06,1.45L144.67,1.48a8.09,8.09,0,0,0-9.32,0L9.52,90.32a22.51,22.51,0,1,0,26.33,36.52L51.17,115.6V226.13a16.16,16.16,0,0,0,16.16,16.15h88.83v48.45a16.15,16.15,0,0,0,16.15,16.15H317.68a16.15,16.15,0,0,0,16.15-16.15V242.28h88.83a16.15,16.15,0,0,0,16.15-16.15V115.6l15.35,11.26a22.31,22.31,0,0,0,13.2,4.33,22.78,22.78,0,0,0,18.94-10.11A22.46,22.46,0,0,0,480.46,90.32ZM366.13,168.09a6.34,6.34,0,0,1-2.53,11.43,6.48,6.48,0,0,1-4.85-1.13l-109-79.95a8.07,8.07,0,0,0-9.54,0l-109,79.95a6.47,6.47,0,0,1-4.84,1.13,6.34,6.34,0,0,1-2.55-11.43L245,82.57Zm-32.3-55A16.15,16.15,0,1,1,350,129.22,16.15,16.15,0,0,1,333.83,113.06Zm64.61,64.61v16.15H382.28V183.75a22,22,0,0,0,2.3-6.08ZM140,129.22a16.16,16.16,0,1,1,16.15-16.16A16.16,16.16,0,0,1,140,129.22ZM26.36,113.77A6.41,6.41,0,0,1,22.59,115a6.58,6.58,0,0,1-5.34-2.74,6.41,6.41,0,0,1,1.62-8.75L140,18l84.25,59.47L214,84.7,144.79,33.88a8.07,8.07,0,0,0-9.56,0Zm41-10L140,50.4l60.06,44.09L172.2,114.17c0-.38.11-.74.11-1.12a32.3,32.3,0,1,0-42,30.69l-15.84,11.17a22.66,22.66,0,0,0-6.21,6.62H91.55a8.07,8.07,0,0,0-8.07,8.07v56.53H67.33Zm32.3,122.38V177.67h5.77a22.65,22.65,0,0,0,3.37,8.08,22.32,22.32,0,0,0,23.16,9.53v30.85Zm48.45,0V186.07l8.08-5.92v46Zm56.54,64.6V242.28h32.3v48.45Zm113.06,0H253.07V234.2a8.07,8.07,0,0,0-8.08-8.07H196.54a8.07,8.07,0,0,0-8.08,8.07v56.53H172.31V168.3L245,115l72.69,53.3Zm16.15-64.6v-46l8.07,5.92v40.06Zm88.83,0h-64.6V195.29a20.3,20.3,0,0,0,8.07.16v6.45a8.07,8.07,0,0,0,8.08,8.07h32.3a8.07,8.07,0,0,0,8.08-8.07V169.6a8.08,8.08,0,0,0-8.08-8.08H381.68a22.42,22.42,0,0,0-6.21-6.62l-15.8-11.14a32.24,32.24,0,1,0-42-30.7c0,.38.09.74.11,1.12L289.92,94.49,350,50.4l72.68,53.35Zm50.17-114a6.52,6.52,0,0,1-4.3,2.76,6.32,6.32,0,0,1-4.84-1.1l-108.95-80a8.1,8.1,0,0,0-9.56,0L276,84.68l-10.28-7.26L350,18l121.14,85.52a6.34,6.34,0,0,1,1.72,8.69Z"/></g></g></svg>