<svg xmlns="http://www.w3.org/2000/svg" viewBox="0 0 420.24 420.24"><defs><style>.cls-1{fill:#f3ae5f;}</style></defs><title>icon-kabupaten</title><g id="Layer_2" data-name="Layer 2"><g id="Capa_1" data-name="Capa 1"><path class="cls-1" d="M165.8,196.41a6.16,6.16,0,0,0-6.16,6.16v11.3a6.16,6.16,0,0,0,12.31,0v-11.3A6.15,6.15,0,0,0,165.8,196.41Z"/><path class="cls-1" d="M195.35,196.41a6.16,6.16,0,0,0-6.16,6.16v11.3a6.16,6.16,0,0,0,12.31,0v-11.3A6.15,6.15,0,0,0,195.35,196.41Z"/><path class="cls-1" d="M254.44,196.41a6.15,6.15,0,0,0-6.15,6.16v11.3a6.16,6.16,0,0,0,12.31,0v-11.3A6.16,6.16,0,0,0,254.44,196.41Z"/><path class="cls-1" d="M224.9,196.41a6.16,6.16,0,0,0-6.16,6.16v11.3a6.16,6.16,0,0,0,12.31,0v-11.3A6.15,6.15,0,0,0,224.9,196.41Z"/><path class="cls-1" d="M374.6,325.07H359.15a6.16,6.16,0,0,0,0,12.31H374.6a6.16,6.16,0,0,0,0-12.31Z"/><path class="cls-1" d="M374.6,354.62H359.15a6.16,6.16,0,0,0,0,12.31H374.6a6.16,6.16,0,0,0,0-12.31Z"/><path class="cls-1" d="M62,325.07H46.51a6.16,6.16,0,0,0,0,12.31H62a6.16,6.16,0,0,0,0-12.31Z"/><path class="cls-1" d="M62,354.62H46.51a6.16,6.16,0,0,0,0,12.31H62a6.16,6.16,0,0,0,0-12.31Z"/><path class="cls-1" d="M180.57,276.12a6.15,6.15,0,0,0-6.15,6.15v85.64a6.16,6.16,0,1,0,12.31,0V282.27A6.15,6.15,0,0,0,180.57,276.12Z"/><path class="cls-1" d="M151,276.12a6.15,6.15,0,0,0-6.15,6.15v85.64a6.16,6.16,0,1,0,12.31,0V282.27A6.15,6.15,0,0,0,151,276.12Z"/><path class="cls-1" d="M121.48,276.12a6.15,6.15,0,0,0-6.16,6.15v85.64a6.16,6.16,0,1,0,12.31,0V282.27A6.15,6.15,0,0,0,121.48,276.12Z"/><path class="cls-1" d="M298.77,276.12a6.15,6.15,0,0,0-6.16,6.15v85.64a6.16,6.16,0,1,0,12.31,0V282.27A6.15,6.15,0,0,0,298.77,276.12Z"/><path class="cls-1" d="M269.22,276.12a6.15,6.15,0,0,0-6.16,6.15v85.64a6.16,6.16,0,1,0,12.32,0V282.27A6.15,6.15,0,0,0,269.22,276.12Z"/><path class="cls-1" d="M239.67,276.12a6.15,6.15,0,0,0-6.16,6.15v85.64a6.16,6.16,0,0,0,12.32,0V282.27A6.15,6.15,0,0,0,239.67,276.12Z"/><path class="cls-1" d="M210.12,276.12a6.15,6.15,0,0,0-6.15,6.15v85.64a6.16,6.16,0,1,0,12.31,0V282.27A6.15,6.15,0,0,0,210.12,276.12Z"/><path class="cls-1" d="M403.07,383.69V308.32A18.3,18.3,0,0,0,402,271.76H341.26v-8.09A18.29,18.29,0,0,0,339,227.23H295.51V188.71a18.3,18.3,0,0,0-.21-36.13,84.83,84.83,0,0,0-14.38-41.81,6.16,6.16,0,1,0-10.2,6.9,72.66,72.66,0,0,1,12.22,34.7H137.3c4.7-56,68.63-85.74,114.46-53.9a6.16,6.16,0,0,0,7-10.11,84.87,84.87,0,0,0-42.51-15V63.18H254.1a16,16,0,0,0,16-16V25.79a16,16,0,0,0-16-16H216.28V6.16a6.16,6.16,0,1,0-12.31,0v67.2a85.51,85.51,0,0,0-79,79.22,18.3,18.3,0,0,0-.21,36.13v38.52H81.3A18.29,18.29,0,0,0,79,263.67v8.09H61.43a6.16,6.16,0,0,0,0,12.31H79v12H18.3a6,6,0,1,1,0-12H32.71a6.16,6.16,0,0,0,0-12.31H18.3a18.3,18.3,0,0,0-1.12,36.56v75.37a18.29,18.29,0,0,0,1.12,36.55H320.74a6.16,6.16,0,1,0,0-12.31H18.3a6,6,0,1,1,0-12H402a6,6,0,0,1,0,12H349.47a6.16,6.16,0,1,0,0,12.31H402a18.29,18.29,0,0,0,1.12-36.55ZM216.28,22.1h37.83a3.74,3.74,0,0,1,3.69,3.69V47.17a3.75,3.75,0,0,1-3.69,3.7H216.28ZM79,383.65H29.49V308.36H79Zm42.78-213a6,6,0,0,1,6-6H292.5a6,6,0,0,1,0,12H127.74A6,6,0,0,1,121.76,170.66ZM283.2,189v38.27H137.05V189ZM329,383.65H91.29V263.82H329ZM81.3,251.51a6,6,0,1,1,0-12H339a6,6,0,0,1,0,12ZM390.76,383.65h-49.5V308.36h49.5ZM341.26,296v-12H402a6,6,0,0,1,0,12Z"/></g></g></svg>