<?xml version="1.0" encoding="utf-8"?>
<!-- Generator: Adobe Illustrator 24.2.3, SVG Export Plug-In . SVG Version: 6.00 Build 0)  -->
<svg version="1.1" id="Layer_1" xmlns="http://www.w3.org/2000/svg" xmlns:xlink="http://www.w3.org/1999/xlink" x="0px" y="0px"
	 viewBox="0 0 64 64" style="enable-background:new 0 0 64 64;" xml:space="preserve">
<style type="text/css">
	.st0{fill:#D3F2DF;}
	.st1{fill:#27B45F;}
	.st2{fill:#FFFFFF;}
</style>
<g>
	<g>
		<path class="st0" d="M59.5,34.2c1.5,5.4-1.5,11.1-6.9,12.7S41.5,45.4,40,40C34.8,21.2,54,14.2,59.5,34.2z"/>
	</g>
	<g>
		<path class="st0" d="M24.5,27.5c1.5,5.4-1.5,11.1-6.9,12.7S6.5,38.7,5,33.3C-0.2,14.5,19,7.5,24.5,27.5z"/>
	</g>
	<path class="st1" d="M28.6,37.1c0.7,0.7,0.7,1.9-0.1,2.6c-0.4,0.4-0.8,0.5-1.3,0.5c-0.5,0-1-0.2-1.3-0.6c-2-2-3-4.7-3-7.5
		c0-2.8,1.1-5.5,3-7.5c0.7-0.7,1.9-0.8,2.6-0.1c0.7,0.7,0.8,1.9,0.1,2.6c-0.8,0.8-1.3,1.7-1.6,2.7c0,0,0,0,0,0
		c-0.2,0.7-0.4,1.4-0.4,2.1c0,0.8,0.1,1.6,0.4,2.3C27.3,35.4,27.8,36.3,28.6,37.1z"/>
	<path class="st1" d="M40.1,40.2c-0.5,0-0.9-0.2-1.3-0.5c-0.7-0.7-0.8-1.9,0-2.6c1.3-1.3,2-3.1,2-4.9c0-1.9-0.7-3.7-2.1-5
		c-0.7-0.7-0.7-1.9,0-2.6s1.9-0.7,2.6,0c2,2,3.2,4.7,3.2,7.6c0,2.8-1.1,5.5-3,7.5C41.1,40,40.6,40.2,40.1,40.2z"/>
	<path class="st1" d="M18.3,48.8c-0.5,0-1-0.2-1.3-0.6c-4.2-4.3-6.5-10-6.5-16.1s2.3-11.7,6.5-16.1c0.7-0.7,1.9-0.8,2.6,0
		c0.7,0.7,0.8,1.9,0,2.6c-3.5,3.6-5.4,8.4-5.4,13.5s1.9,9.9,5.4,13.5c0.7,0.7,0.7,1.9,0,2.6C19.3,48.6,18.8,48.8,18.3,48.8z"/>
	<path class="st1" d="M49,48.8c-0.5,0-0.9-0.2-1.3-0.5c-0.7-0.7-0.8-1.9,0-2.6c3.5-3.6,5.4-8.4,5.4-13.5c0-5.2-2-10.1-5.7-13.7
		c-0.7-0.7-0.7-1.9,0-2.6c0.7-0.7,1.9-0.7,2.6,0c4.4,4.4,6.8,10.2,6.8,16.4c0,6-2.3,11.7-6.5,16.1C50,48.6,49.5,48.8,49,48.8z"/>
	<path class="st1" d="M35.8,32.1c0,1.2-1,2.1-2.1,2.1c-0.5,0-1-0.2-1.3-0.5v0c0,0,0,0,0,0s0,0,0,0c-0.2-0.1-0.3-0.3-0.4-0.5
		c0,0,0,0,0,0c-0.2-0.3-0.3-0.7-0.3-1.1c0-0.5,0.2-1,0.5-1.4c0.1-0.1,0.2-0.2,0.3-0.3c0,0,0.1-0.1,0.1-0.1c0.4-0.2,0.8-0.4,1.2-0.4
		C34.8,30,35.8,31,35.8,32.1z"/>
</g>
</svg>
