<?xml version="1.0" encoding="utf-8"?>
<!-- Generator: Adobe Illustrator 24.2.3, SVG Export Plug-In . SVG Version: 6.00 Build 0)  -->
<svg version="1.1" id="Layer_1" xmlns="http://www.w3.org/2000/svg" xmlns:xlink="http://www.w3.org/1999/xlink" x="0px" y="0px"
	 viewBox="0 0 64 64" style="enable-background:new 0 0 64 64;" xml:space="preserve">
<style type="text/css">
	.st0{fill:#D3F2DF;}
	.st1{fill:#27B45F;}
	.st2{fill:#FFFFFF;}
</style>
<g>
	<g>
		<path class="st0" d="M39.9,53.8c-6-1.1-10.2-6.7-9.2-12.7s6.7-10.3,12.7-9.2C64.3,35.7,62.1,57.9,39.9,53.8z"/>
	</g>
	<g>
		<path class="st0" d="M15.5,31.8c-6-1.1-10.2-6.7-9.2-12.7S13,8.7,19,9.8C39.9,13.6,37.7,35.8,15.5,31.8z"/>
	</g>
	<g>
		<path class="st1" d="M44.8,50.3H16.2c-1.1,0-2-0.9-2-2s0.9-2,2-2h28.6c1.1,0,2,0.9,2,2S45.9,50.3,44.8,50.3z"/>
	</g>
	<g>
		<path class="st1" d="M54.6,33.9H26c-1.1,0-2-0.9-2-2c0-1.1,0.9-2,2-2h28.6c1.1,0,2,0.9,2,2C56.6,33,55.7,33.9,54.6,33.9z"/>
	</g>
	<g>
		<path class="st1" d="M44.8,17.4H16.2c-1.1,0-2-0.9-2-2c0-1.1,0.9-2,2-2h28.6c1.1,0,2,0.9,2,2C46.8,16.5,45.9,17.4,44.8,17.4z"/>
	</g>
</g>
</svg>
