<?xml version="1.0" encoding="utf-8"?>
<!-- Generator: Adobe Illustrator 24.2.3, SVG Export Plug-In . SVG Version: 6.00 Build 0)  -->
<svg version="1.1" id="Layer_1" xmlns="http://www.w3.org/2000/svg" xmlns:xlink="http://www.w3.org/1999/xlink" x="0px" y="0px"
	 viewBox="0 0 64 64" style="enable-background:new 0 0 64 64;" xml:space="preserve">
<style type="text/css">
	.st0{fill:#D3F2DF;}
	.st1{fill:#27B45F;}
	.st2{fill:#FFFFFF;}
</style>
<g>
	<g>
		<path class="st0" d="M15.4,11.3c3.7-3.6,9.5-3.8,13.2-0.1s3.8,9.6,0.1,13.2C16,36.9,1.8,24.6,15.4,11.3z"/>
	</g>
	<g>
		<path class="st0" d="M38.6,38.8c3.4-3.3,8.7-3.4,12.1-0.1s3.5,8.8,0.1,12.1C39.2,62.2,26.3,50.9,38.6,38.8z"/>
	</g>
	<g>
		<path class="st1" d="M17.6,45c-0.5,0-1-0.2-1.3-0.5c-0.3-0.3-0.5-0.8-0.5-1.3c0-0.5,0.2-1,0.5-1.3c0.1-0.1,0.2-0.1,0.3-0.2
			c0.1-0.1,0.2-0.1,0.3-0.2c0.1-0.1,0.2-0.1,0.3-0.1c0.6-0.1,1.2,0.1,1.7,0.5c0.3,0.3,0.5,0.8,0.5,1.3c0,0.5-0.2,1-0.5,1.3
			C18.6,44.8,18.1,45,17.6,45z"/>
	</g>
	<g>
		<path class="st0" d="M11.9,33.1c-0.1-1,0.6-1.9,1.7-2l0,0c1-0.1,1.9,0.6,2,1.7l0,0c0.1,1-0.6,1.9-1.6,2l0,0c-0.1,0-0.1,0-0.2,0
			l0,0C12.8,34.7,12,34,11.9,33.1z"/>
	</g>
	<g>
		<path class="st1" d="M14.7,23.7c-0.9-0.4-1.3-1.5-0.9-2.4l0,0c0.4-0.9,1.5-1.3,2.4-0.9l0,0c0.9,0.4,1.3,1.5,0.9,2.4l0,0
			c-0.3,0.7-1,1.1-1.7,1.1l0,0C15.2,23.9,14.9,23.8,14.7,23.7z"/>
	</g>
	<g>
		<g>
			<path class="st0" d="M52.1,34.7c-1-0.1-1.8-1-1.7-2l0,0c0.1-1,1-1.7,2-1.7l0,0c1,0.1,1.7,1,1.7,2l0,0l0,0l0,0
				c-0.1,1-0.9,1.7-1.8,1.7l0,0C52.2,34.7,52.2,34.7,52.1,34.7z"/>
		</g>
		<g>
			<path class="st1" d="M48.8,22.7c-0.4-0.9,0-2,0.9-2.4l0,0c0.9-0.4,2,0,2.4,0.9l0,0c0.4,0.9,0,2-0.9,2.4l0,0
				c-0.2,0.1-0.5,0.2-0.8,0.2l0,0C49.8,23.8,49.1,23.4,48.8,22.7z"/>
		</g>
		<g>
			<path class="st2" d="M21,14.6c-0.6-0.8-0.3-2,0.5-2.6l0,0c0,0,0,0,0,0l0,0c0.8-0.6,2-0.3,2.6,0.5l0,0c0.6,0.8,0.3,2-0.5,2.6l0,0
				c-0.3,0.2-0.7,0.3-1,0.3l0,0C21.9,15.4,21.3,15.1,21,14.6z"/>
		</g>
		<g>
			<path class="st0" d="M42.4,15.1c-0.8-0.6-1.1-1.7-0.5-2.6l0,0c0.6-0.8,1.7-1.1,2.6-0.5l0,0c0.8,0.6,1.1,1.7,0.5,2.6l0,0
				c-0.4,0.5-0.9,0.8-1.5,0.8l0,0C43.1,15.4,42.7,15.3,42.4,15.1z"/>
		</g>
		<g>
			<path class="st1" d="M31.1,10.3c0-1,0.8-1.8,1.8-1.8l0,0l0,0l0,0c1,0,1.8,0.8,1.8,1.8l0,0c0,1-0.8,1.8-1.8,1.8l0,0
				C32,12.2,31.1,11.3,31.1,10.3z"/>
		</g>
		<g>
			<path class="st1" d="M48.4,45c-0.2,0-0.5,0-0.7-0.1c-0.2-0.1-0.4-0.2-0.6-0.4c-0.3-0.3-0.5-0.8-0.5-1.3c0-0.5,0.2-1,0.5-1.3
				c0.7-0.7,1.9-0.7,2.6,0c0.3,0.3,0.5,0.8,0.5,1.3c0,0.5-0.2,1-0.5,1.3C49.3,44.8,48.9,45,48.4,45z"/>
		</g>
		<g>
			<path class="st1" d="M33,54.6c-3.5,0-6.3-2.8-6.3-6.3V44c0-3.3-1.6-6-3-7.6c-2.2-2.7-3.1-6.1-2.4-9.6c0.9-4.7,4.5-8.4,9.1-9.4
				c3.6-0.8,7.2,0.1,10,2.4c2.8,2.3,4.4,5.6,4.4,9.2c0,2.7-0.9,5.3-2.6,7.4c-2,2.4-3,5.1-3,7.7v4.2C39.3,51.7,36.5,54.6,33,54.6z
				 M33,20.8c-0.6,0-1.2,0.1-1.8,0.2c-3.2,0.7-5.7,3.3-6.3,6.5c-0.4,2.4,0.1,4.8,1.7,6.6c2.5,3.1,3.8,6.5,3.8,9.9v4.3
				c0,1.4,1.2,2.6,2.6,2.6s2.6-1.2,2.6-2.6V44c0-3.5,1.3-6.9,3.8-10c1.2-1.5,1.8-3.2,1.8-5.1c0-2.5-1.1-4.8-3-6.4
				C36.7,21.4,34.9,20.8,33,20.8z"/>
		</g>
		<g>
			<path class="st1" d="M37.4,47.7h-8.9c-1,0-1.8-0.8-1.8-1.8s0.8-1.8,1.8-1.8h8.9c1,0,1.8,0.8,1.8,1.8S38.5,47.7,37.4,47.7z"/>
		</g>
	</g>
</g>
</svg>
