<svg xmlns="http://www.w3.org/2000/svg" viewBox="0 0 590.36 135.41"><defs><style>.cls-1{fill:#fff;}</style></defs><title>neo_logo_digides</title><g id="Layer_2" data-name="Layer 2"><g id="Layer_1-2" data-name="Layer 1"><path class="cls-1" d="M194.11,57.87a36.39,36.39,0,0,1-8.56,12.48,40.6,40.6,0,0,1-13.2,8.28,45.65,45.65,0,0,1-16.84,3H126.3V3.32h29.21a46.47,46.47,0,0,1,16.84,3,39.82,39.82,0,0,1,13.2,8.23,36.54,36.54,0,0,1,8.56,12.42,39.19,39.19,0,0,1,3,15.44A39.63,39.63,0,0,1,194.11,57.87Zm-13.38-26a25.67,25.67,0,0,0-5.49-8.49,24.79,24.79,0,0,0-8.59-5.62,29.88,29.88,0,0,0-11.22-2H140V69.23h15.48a30.7,30.7,0,0,0,11.22-2,24.53,24.53,0,0,0,8.59-5.5,25,25,0,0,0,5.49-8.43,28.54,28.54,0,0,0,2-10.73A28.46,28.46,0,0,0,180.73,31.87Z"/><path class="cls-1" d="M228.24,3.32V81.65H214.59V3.32Z"/><path class="cls-1" d="M312.67,75.5a49.06,49.06,0,0,1-7.61,3.91A47.79,47.79,0,0,1,296.28,82a50,50,0,0,1-9.85.95,43.5,43.5,0,0,1-16.67-3.07,37.21,37.21,0,0,1-21-21.32,43.29,43.29,0,0,1-2.91-16,41.79,41.79,0,0,1,3-15.67A39.16,39.16,0,0,1,269.93,5.22,40.28,40.28,0,0,1,286.21,2a55.42,55.42,0,0,1,9.34.73,44,44,0,0,1,7.78,2.07,40.39,40.39,0,0,1,6.77,3.3,50.64,50.64,0,0,1,6.21,4.54L307.58,23A49.36,49.36,0,0,0,303,19.54a28.75,28.75,0,0,0-4.92-2.63,31.18,31.18,0,0,0-5.65-1.67,34.67,34.67,0,0,0-6.77-.62,23.22,23.22,0,0,0-10,2.19,24.93,24.93,0,0,0-8.06,6,28.89,28.89,0,0,0-5.37,8.85,29.66,29.66,0,0,0-1.95,10.77,32.1,32.1,0,0,0,1.9,11.21,26,26,0,0,0,5.42,8.91,25.26,25.26,0,0,0,8.4,5.89,26.92,26.92,0,0,0,10.91,2.13,32.61,32.61,0,0,0,10.46-1.63,29.5,29.5,0,0,0,8.45-4.33V49.87h-20v-12h33.35V70.8A59.75,59.75,0,0,1,312.67,75.5Z"/><path class="cls-1" d="M351.44,3.32V81.65H337.79V3.32Z"/><path class="cls-1" d="M440.3,57.87a36.53,36.53,0,0,1-8.56,12.48,40.64,40.64,0,0,1-13.21,8.28,45.61,45.61,0,0,1-16.84,3H372.48V3.32h29.21a46.43,46.43,0,0,1,16.84,3,39.87,39.87,0,0,1,13.21,8.23,36.68,36.68,0,0,1,8.56,12.42,39.37,39.37,0,0,1,3,15.44A39.81,39.81,0,0,1,440.3,57.87Zm-13.38-26a25.54,25.54,0,0,0-5.5-8.49,24.84,24.84,0,0,0-8.58-5.62,29.92,29.92,0,0,0-11.22-2H386.13V69.23h15.49a30.73,30.73,0,0,0,11.22-2,24.58,24.58,0,0,0,8.58-5.5,24.88,24.88,0,0,0,5.5-8.43,28.53,28.53,0,0,0,2-10.73A28.46,28.46,0,0,0,426.92,31.87Z"/><path class="cls-1" d="M518,15.74H473.64V35.88h39.28V48.3H473.64V69.23h44.88V81.65H460V3.32h58Z"/><path class="cls-1" d="M547.28,27.82A8.16,8.16,0,0,0,550.14,31a22.74,22.74,0,0,0,5.72,2.68c2.43.83,5.51,1.68,9.25,2.58a87.06,87.06,0,0,1,10.94,3.47A27.21,27.21,0,0,1,584,44.33a18.2,18.2,0,0,1,4.77,6.38,20.88,20.88,0,0,1,1.63,8.56,23.12,23.12,0,0,1-2.06,10,20.92,20.92,0,0,1-5.71,7.38,25.06,25.06,0,0,1-8.8,4.59,38.44,38.44,0,0,1-11.3,1.57,49.41,49.41,0,0,1-17.34-3.08,47.35,47.35,0,0,1-15.33-9.45l8.28-9.85a48.14,48.14,0,0,0,11.52,7.55,31.66,31.66,0,0,0,13.21,2.63q6.38,0,10.13-2.68a8.5,8.5,0,0,0,3.75-7.28,9.57,9.57,0,0,0-.73-3.8,7.64,7.64,0,0,0-2.7-3.08,22.63,22.63,0,0,0-5.38-2.63A90.23,90.23,0,0,0,559,48.53a92.94,92.94,0,0,1-11.16-3.25,28.17,28.17,0,0,1-8.19-4.47,17.89,17.89,0,0,1-5-6.49A22.29,22.29,0,0,1,532.84,25a21.39,21.39,0,0,1,2-9.35,21.82,21.82,0,0,1,5.49-7.21,24.23,24.23,0,0,1,8.41-4.65A34.1,34.1,0,0,1,559.47,2.2,44.84,44.84,0,0,1,575,4.72a46.11,46.11,0,0,1,12.93,7.33l-7.39,10.4a47.9,47.9,0,0,0-10.63-6,28.83,28.83,0,0,0-10.63-2.07q-6,0-9.4,2.74a8.32,8.32,0,0,0-3.36,6.66A9.3,9.3,0,0,0,547.28,27.82Z"/><path class="cls-1" d="M134.82,129.45h-4.56V107.88h-8.17v-4.19H143v4.19h-8.18Z"/><path class="cls-1" d="M149.1,129.45h-4.49V110h4.49v4.38a8.63,8.63,0,0,1,2.62-3.54,6.24,6.24,0,0,1,4.27-1.21v4.71h-.26a7.27,7.27,0,0,0-2.69.48,5.73,5.73,0,0,0-2.1,1.43,6.71,6.71,0,0,0-1.36,2.41,11.09,11.09,0,0,0-.48,3.37Z"/><path class="cls-1" d="M170.79,129.45v-2.39a8.51,8.51,0,0,1-2.54,2,8,8,0,0,1-3.76.81,8.9,8.9,0,0,1-2.65-.39,6.71,6.71,0,0,1-2.19-1.14,5.58,5.58,0,0,1-1.51-1.88,5.64,5.64,0,0,1-.57-2.59v-.08a6.16,6.16,0,0,1,.59-2.76,5.42,5.42,0,0,1,1.64-2,7.49,7.49,0,0,1,2.5-1.16,12.14,12.14,0,0,1,3.15-.38,17,17,0,0,1,3,.22,17.83,17.83,0,0,1,2.37.58v-.47a3.9,3.9,0,0,0-1.23-3.1A5.28,5.28,0,0,0,166,113.7a11.93,11.93,0,0,0-2.95.33,18.65,18.65,0,0,0-2.61.88l-1.21-3.57a21.06,21.06,0,0,1,3.31-1.18,16.59,16.59,0,0,1,4.08-.44q4.35,0,6.44,2.15a8.33,8.33,0,0,1,2.1,6.06v11.52Zm.11-8.24a12,12,0,0,0-2-.56,13.7,13.7,0,0,0-2.45-.22,5.69,5.69,0,0,0-3.27.81,2.64,2.64,0,0,0-1.18,2.32v.08a2.4,2.4,0,0,0,1.09,2.13,4.63,4.63,0,0,0,2.66.74,6.73,6.73,0,0,0,2-.3,5,5,0,0,0,1.63-.83,3.71,3.71,0,0,0,1.09-1.28,3.64,3.64,0,0,0,.39-1.68Z"/><path class="cls-1" d="M185,129.45H180.5V110H185v3a11.26,11.26,0,0,1,1-1.32,6.77,6.77,0,0,1,1.32-1.1,6.91,6.91,0,0,1,1.65-.76,6.75,6.75,0,0,1,2-.28,6.47,6.47,0,0,1,5.1,2,7.88,7.88,0,0,1,1.8,5.44v12.37h-4.49v-11a5.14,5.14,0,0,0-1.08-3.5,3.83,3.83,0,0,0-3-1.23A4.14,4.14,0,0,0,186.2,115a4.93,4.93,0,0,0-1.21,3.55Z"/><path class="cls-1" d="M216.65,126.4a5.24,5.24,0,0,1-1.53,1.89,7,7,0,0,1-2.3,1.14,10,10,0,0,1-2.83.39,13.18,13.18,0,0,1-4.26-.74,13.62,13.62,0,0,1-4-2.17l2-3a12.92,12.92,0,0,0,3.22,1.79,9.15,9.15,0,0,0,3.15.61,3.69,3.69,0,0,0,2.22-.58,1.77,1.77,0,0,0,.79-1.52v-.08a1.42,1.42,0,0,0-.34-1,3.35,3.35,0,0,0-1-.72,8.34,8.34,0,0,0-1.4-.55l-1.64-.5c-.71-.22-1.43-.47-2.15-.74a7.87,7.87,0,0,1-2-1,5.28,5.28,0,0,1-1.42-1.59,4.5,4.5,0,0,1-.55-2.34v-.07a5.62,5.62,0,0,1,.53-2.46,5.54,5.54,0,0,1,1.47-1.88,6.61,6.61,0,0,1,2.21-1.18,8.88,8.88,0,0,1,2.71-.4,12.48,12.48,0,0,1,3.72.58,13.81,13.81,0,0,1,3.42,1.62L215,115.06a14.53,14.53,0,0,0-2.83-1.34,8,8,0,0,0-2.65-.5,3.22,3.22,0,0,0-2,.55,1.7,1.7,0,0,0-.72,1.4v.07a1.3,1.3,0,0,0,.37.91,3.61,3.61,0,0,0,1,.69,9.83,9.83,0,0,0,1.4.59c.52.19,1.07.37,1.63.54.71.22,1.43.48,2.14.77a8.85,8.85,0,0,1,1.93,1.09,5.42,5.42,0,0,1,1.42,1.56,4.26,4.26,0,0,1,.55,2.25v.07A6.09,6.09,0,0,1,216.65,126.4Z"/><path class="cls-1" d="M232.29,110.16v3.68h-5.08v15.61h-4.49V113.84h-2.46v-3.71h2.46v-1.4a6.58,6.58,0,0,1,1.56-4.81,6,6,0,0,1,4.44-1.56,11.86,11.86,0,0,1,2,.15,13.58,13.58,0,0,1,1.58.37v3.75a12.25,12.25,0,0,0-1.27-.35,6.22,6.22,0,0,0-1.34-.13c-1.72,0-2.58,1-2.58,2.95v1.06Z"/><path class="cls-1" d="M254.06,123.67a10.1,10.1,0,0,1-5.46,5.41,11.09,11.09,0,0,1-8.27,0,9.93,9.93,0,0,1-6.2-9.29,10.11,10.11,0,0,1,3-7.2,10.32,10.32,0,0,1,3.27-2.19,10.44,10.44,0,0,1,4.14-.81,10.75,10.75,0,0,1,4.14.79,10,10,0,0,1,3.28,2.17,10,10,0,0,1,2.92,7.16A9.8,9.8,0,0,1,254.06,123.67Zm-4.13-6.29a6.62,6.62,0,0,0-1.23-2,5.78,5.78,0,0,0-1.87-1.36,6,6,0,0,0-4.79,0,5.79,5.79,0,0,0-1.85,1.34,5.92,5.92,0,0,0-1.17,2,7.3,7.3,0,0,0-.4,2.41,6.91,6.91,0,0,0,.44,2.45,6,6,0,0,0,1.23,2,5.83,5.83,0,0,0,1.86,1.34,5.61,5.61,0,0,0,2.36.5,5.77,5.77,0,0,0,2.43-.5,5.68,5.68,0,0,0,1.85-1.34,5.92,5.92,0,0,0,1.17-2,7,7,0,0,0,.4-2.41A6.76,6.76,0,0,0,249.93,117.38Z"/><path class="cls-1" d="M263.87,129.45h-4.49V110h4.49v4.38a8.63,8.63,0,0,1,2.62-3.54,6.23,6.23,0,0,1,4.27-1.21v4.71h-.26a7.27,7.27,0,0,0-2.69.48,5.73,5.73,0,0,0-2.1,1.43,6.57,6.57,0,0,0-1.36,2.41,10.79,10.79,0,0,0-.48,3.37Z"/><path class="cls-1" d="M293.55,110.56a7.38,7.38,0,0,1,3.81-1,6.54,6.54,0,0,1,5,1.93,7.75,7.75,0,0,1,1.81,5.51v12.4h-4.49v-11a5.28,5.28,0,0,0-1-3.52,3.57,3.57,0,0,0-2.89-1.21,3.91,3.91,0,0,0-3,1.23,5,5,0,0,0-1.15,3.58v10.94h-4.5v-11a5.28,5.28,0,0,0-1-3.49,3.58,3.58,0,0,0-2.9-1.21,3.83,3.83,0,0,0-3,1.28,5.2,5.2,0,0,0-1.14,3.56v10.91h-4.49V110h4.49v3a15.7,15.7,0,0,1,1-1.26,7,7,0,0,1,1.27-1.08,6.36,6.36,0,0,1,1.62-.76,6.64,6.64,0,0,1,2-.28,6.4,6.4,0,0,1,3.55,1,6.19,6.19,0,0,1,2.22,2.51A9.6,9.6,0,0,1,293.55,110.56Z"/><path class="cls-1" d="M321.44,129.45v-2.39a8.39,8.39,0,0,1-2.54,2,8,8,0,0,1-3.75.81,8.8,8.8,0,0,1-2.65-.39,6.52,6.52,0,0,1-2.19-1.14,5.58,5.58,0,0,1-1.51-1.88,5.64,5.64,0,0,1-.57-2.59v-.08a6,6,0,0,1,.59-2.76,5.4,5.4,0,0,1,1.63-2,7.54,7.54,0,0,1,2.51-1.16,12.06,12.06,0,0,1,3.14-.38,17,17,0,0,1,3,.22,17.61,17.61,0,0,1,2.38.58v-.47a3.87,3.87,0,0,0-1.24-3.1,5.26,5.26,0,0,0-3.55-1.06,11.9,11.9,0,0,0-2.94.33,19.21,19.21,0,0,0-2.62.88l-1.21-3.57a21.06,21.06,0,0,1,3.31-1.18,16.62,16.62,0,0,1,4.09-.44q4.33,0,6.44,2.15a8.33,8.33,0,0,1,2.1,6.06v11.52Zm.11-8.24a11.44,11.44,0,0,0-2-.56,13.58,13.58,0,0,0-2.44-.22,5.74,5.74,0,0,0-3.28.81,2.64,2.64,0,0,0-1.18,2.32v.08a2.43,2.43,0,0,0,1.09,2.13,4.64,4.64,0,0,0,2.67.74,6.71,6.71,0,0,0,2-.3,5.07,5.07,0,0,0,1.64-.83,3.68,3.68,0,0,0,1.08-1.28,3.64,3.64,0,0,0,.39-1.68Z"/><path class="cls-1" d="M344.48,126.4a5.24,5.24,0,0,1-1.53,1.89,6.88,6.88,0,0,1-2.3,1.14,9.93,9.93,0,0,1-2.83.39,13.07,13.07,0,0,1-4.25-.74,13.54,13.54,0,0,1-4-2.17l2-3a13.1,13.1,0,0,0,3.22,1.79,9.15,9.15,0,0,0,3.15.61,3.7,3.7,0,0,0,2.23-.58,1.79,1.79,0,0,0,.79-1.52v-.08a1.43,1.43,0,0,0-.35-1,3.22,3.22,0,0,0-1-.72,8,8,0,0,0-1.4-.55l-1.64-.5c-.71-.22-1.42-.47-2.15-.74a8.25,8.25,0,0,1-1.95-1,5.28,5.28,0,0,1-1.42-1.59,4.5,4.5,0,0,1-.55-2.34v-.07a5.62,5.62,0,0,1,.53-2.46,5.45,5.45,0,0,1,1.48-1.88,6.42,6.42,0,0,1,2.21-1.18,8.77,8.77,0,0,1,2.7-.4,12.43,12.43,0,0,1,3.72.58,13.81,13.81,0,0,1,3.42,1.62l-1.76,3.17a14.61,14.61,0,0,0-2.84-1.34,8,8,0,0,0-2.65-.5,3.17,3.17,0,0,0-2,.55,1.7,1.7,0,0,0-.72,1.4v.07a1.29,1.29,0,0,0,.36.91,3.77,3.77,0,0,0,1,.69,9.83,9.83,0,0,0,1.4.59c.53.19,1.07.37,1.64.54s1.42.48,2.13.77a8.62,8.62,0,0,1,1.93,1.09,5.42,5.42,0,0,1,1.42,1.56,4.26,4.26,0,0,1,.55,2.25v.07A6.09,6.09,0,0,1,344.48,126.4Z"/><path class="cls-1" d="M349.63,107V102.8h4.83V107Zm.19,22.42V110h4.49v19.43Z"/><path class="cls-1" d="M394,121.63a12,12,0,0,1-2.81,4.1,13.45,13.45,0,0,1-4.35,2.73,15,15,0,0,1-5.54,1h-9.6V103.69h9.6a15.2,15.2,0,0,1,5.54,1,13.07,13.07,0,0,1,4.35,2.71,12,12,0,0,1,2.81,4.08,13.58,13.58,0,0,1,0,10.18Zm-4.4-8.56a8.35,8.35,0,0,0-1.81-2.79,8.12,8.12,0,0,0-2.82-1.84,9.74,9.74,0,0,0-3.69-.67h-5.09v17.6h5.09a10.14,10.14,0,0,0,3.69-.65,8.05,8.05,0,0,0,2.82-1.81,8.16,8.16,0,0,0,1.81-2.77,9.94,9.94,0,0,0,0-7.07Z"/><path class="cls-1" d="M400,107V102.8h4.82V107Zm.18,22.42V110h4.49v19.43Z"/><path class="cls-1" d="M426.82,133c-1.82,1.6-4.39,2.39-7.73,2.39a16.43,16.43,0,0,1-8.69-2.32l1.66-3.34a14.86,14.86,0,0,0,3.24,1.5,11.78,11.78,0,0,0,3.68.56,6.32,6.32,0,0,0,4.56-1.52,5.89,5.89,0,0,0,1.59-4.47V124.3a10.44,10.44,0,0,1-2.84,2.6,7.46,7.46,0,0,1-4,1,9.25,9.25,0,0,1-3.31-.61,8.36,8.36,0,0,1-2.82-1.79,8.68,8.68,0,0,1-2-2.87,10.6,10.6,0,0,1,0-7.73,8.78,8.78,0,0,1,2-2.87,8.69,8.69,0,0,1,2.84-1.8,8.87,8.87,0,0,1,3.29-.63,7.62,7.62,0,0,1,4.07,1,10.79,10.79,0,0,1,2.74,2.36V110h4.45v15.46C429.54,128.91,428.64,131.43,426.82,133Zm-2.12-16.46a4.89,4.89,0,0,0-1.23-1.69,5.27,5.27,0,0,0-1.82-1.08,6.24,6.24,0,0,0-2.19-.39,5.86,5.86,0,0,0-2.17.39,5.15,5.15,0,0,0-1.75,1.08,4.82,4.82,0,0,0-1.18,1.68,5.52,5.52,0,0,0-.42,2.19,5.35,5.35,0,0,0,.44,2.19,5.29,5.29,0,0,0,1.18,1.7,5,5,0,0,0,1.75,1.1,5.9,5.9,0,0,0,2.15.38,6.23,6.23,0,0,0,2.19-.38,5.31,5.31,0,0,0,1.82-1.1A5.14,5.14,0,0,0,424.7,121a4.93,4.93,0,0,0,.46-2.17A5.25,5.25,0,0,0,424.7,116.56Z"/><path class="cls-1" d="M435.18,107V102.8H440V107Zm.18,22.42V110h4.49v19.43Z"/><path class="cls-1" d="M451,123.37a2.44,2.44,0,0,0,.63,1.87,2.5,2.5,0,0,0,1.76.57,6,6,0,0,0,2.76-.67v3.65a7.47,7.47,0,0,1-1.8.73,8.17,8.17,0,0,1-2.21.26,8.45,8.45,0,0,1-2.25-.29,4.59,4.59,0,0,1-1.8-1,4.29,4.29,0,0,1-1.17-1.75,7.87,7.87,0,0,1-.41-2.72V113.81h-2.47V110h2.47v-5.34H451V110h5.23v3.79H451Z"/><path class="cls-1" d="M472.61,129.45v-2.39a8.39,8.39,0,0,1-2.54,2,8,8,0,0,1-3.75.81,8.8,8.8,0,0,1-2.65-.39,6.66,6.66,0,0,1-2.2-1.14,5.58,5.58,0,0,1-2.07-4.47v-.08A6.16,6.16,0,0,1,460,121a5.53,5.53,0,0,1,1.64-2,7.58,7.58,0,0,1,2.5-1.16,12.14,12.14,0,0,1,3.15-.38,17,17,0,0,1,3,.22,18.37,18.37,0,0,1,2.38.58v-.47a3.87,3.87,0,0,0-1.24-3.1,5.26,5.26,0,0,0-3.55-1.06,11.84,11.84,0,0,0-2.94.33,19.21,19.21,0,0,0-2.62.88l-1.21-3.57a21.06,21.06,0,0,1,3.31-1.18,16.62,16.62,0,0,1,4.09-.44q4.33,0,6.44,2.15a8.33,8.33,0,0,1,2.1,6.06v11.52Zm.11-8.24a11.44,11.44,0,0,0-2-.56,13.67,13.67,0,0,0-2.44-.22,5.72,5.72,0,0,0-3.28.81,2.64,2.64,0,0,0-1.18,2.32v.08a2.4,2.4,0,0,0,1.09,2.13,4.64,4.64,0,0,0,2.67.74,6.71,6.71,0,0,0,2-.3,5.07,5.07,0,0,0,1.64-.83,3.68,3.68,0,0,0,1.08-1.28,3.64,3.64,0,0,0,.39-1.68Z"/><path class="cls-1" d="M482.58,129.45V102.58h4.49v26.87Z"/><path class="cls-1" d="M526.72,121.63a12.12,12.12,0,0,1-2.82,4.1,13.3,13.3,0,0,1-4.34,2.73,15,15,0,0,1-5.54,1h-9.61V103.69H514a15.24,15.24,0,0,1,5.54,1,12.93,12.93,0,0,1,4.34,2.71,12.13,12.13,0,0,1,2.82,4.08,13.58,13.58,0,0,1,0,10.18Zm-4.4-8.56a8.67,8.67,0,0,0-1.81-2.79,8.31,8.31,0,0,0-2.82-1.84,9.75,9.75,0,0,0-3.7-.67H508.9v17.6H514a10.15,10.15,0,0,0,3.7-.65,8.24,8.24,0,0,0,2.82-1.81,8.47,8.47,0,0,0,1.81-2.77,10.08,10.08,0,0,0,0-7.07Z"/><path class="cls-1" d="M538,125a5.54,5.54,0,0,0,3.68,1.27,6.56,6.56,0,0,0,2.87-.59,9.18,9.18,0,0,0,2.39-1.73l2.62,2.32a10.88,10.88,0,0,1-3.34,2.65,10,10,0,0,1-4.61,1,10.35,10.35,0,0,1-3.92-.73,9.39,9.39,0,0,1-5.29-5.25,10.79,10.79,0,0,1-.77-4.14,10.93,10.93,0,0,1,.7-3.94,10,10,0,0,1,2-3.22,9.6,9.6,0,0,1,3-2.19,8.91,8.91,0,0,1,3.83-.81,9.2,9.2,0,0,1,4.07.85,8.27,8.27,0,0,1,2.9,2.28,9.9,9.9,0,0,1,1.75,3.35,13.65,13.65,0,0,1,.59,4c0,.2,0,.39,0,.59s0,.41,0,.63H536.06A5.87,5.87,0,0,0,538,125Zm8-6.61a7.23,7.23,0,0,0-.48-2,4.9,4.9,0,0,0-1-1.62,4.51,4.51,0,0,0-3.46-1.49,4.49,4.49,0,0,0-3.4,1.41,6.36,6.36,0,0,0-1.64,3.7Z"/><path class="cls-1" d="M568.24,126.4a5.24,5.24,0,0,1-1.53,1.89,7,7,0,0,1-2.3,1.14,10,10,0,0,1-2.84.39,13.12,13.12,0,0,1-4.25-.74,13.49,13.49,0,0,1-4-2.17l2-3a12.75,12.75,0,0,0,3.22,1.79,9.14,9.14,0,0,0,3.14.61,3.7,3.7,0,0,0,2.23-.58,1.77,1.77,0,0,0,.79-1.52v-.08a1.38,1.38,0,0,0-.35-1,3.09,3.09,0,0,0-1-.72,8.22,8.22,0,0,0-1.39-.55l-1.64-.5c-.71-.22-1.43-.47-2.16-.74a8.25,8.25,0,0,1-2-1,5.25,5.25,0,0,1-1.41-1.59,4.5,4.5,0,0,1-.56-2.34v-.07a5.49,5.49,0,0,1,.54-2.46,5.42,5.42,0,0,1,1.47-1.88,6.51,6.51,0,0,1,2.21-1.18,8.86,8.86,0,0,1,2.7-.4,12.43,12.43,0,0,1,3.72.58,13.88,13.88,0,0,1,3.43,1.62l-1.77,3.17a14.53,14.53,0,0,0-2.83-1.34,8,8,0,0,0-2.65-.5,3.22,3.22,0,0,0-2,.55,1.7,1.7,0,0,0-.72,1.4v.07a1.26,1.26,0,0,0,.37.91,3.55,3.55,0,0,0,1,.69,10.93,10.93,0,0,0,1.4.59c.53.19,1.08.37,1.64.54.71.22,1.42.48,2.14.77a8.85,8.85,0,0,1,1.93,1.09,5.56,5.56,0,0,1,1.42,1.56,4.36,4.36,0,0,1,.55,2.25v.07A6.24,6.24,0,0,1,568.24,126.4Z"/><path class="cls-1" d="M585.2,129.45v-2.39a8.39,8.39,0,0,1-2.54,2,8,8,0,0,1-3.75.81,8.85,8.85,0,0,1-2.65-.39,6.52,6.52,0,0,1-2.19-1.14,5.58,5.58,0,0,1-1.51-1.88,5.64,5.64,0,0,1-.57-2.59v-.08a6.16,6.16,0,0,1,.59-2.76,5.42,5.42,0,0,1,1.64-2,7.49,7.49,0,0,1,2.5-1.16,12.14,12.14,0,0,1,3.15-.38,17,17,0,0,1,3,.22,17.61,17.61,0,0,1,2.38.58v-.47a3.9,3.9,0,0,0-1.23-3.1,5.29,5.29,0,0,0-3.56-1.06,11.9,11.9,0,0,0-2.94.33,18.65,18.65,0,0,0-2.61.88l-1.22-3.57a21.17,21.17,0,0,1,3.32-1.18,16.53,16.53,0,0,1,4.08-.44c2.9,0,5,.72,6.44,2.15a8.33,8.33,0,0,1,2.1,6.06v11.52Zm.11-8.24a11.57,11.57,0,0,0-2-.56,13.78,13.78,0,0,0-2.45-.22,5.74,5.74,0,0,0-3.28.81,2.66,2.66,0,0,0-1.17,2.32v.08a2.42,2.42,0,0,0,1.08,2.13,4.64,4.64,0,0,0,2.67.74,6.61,6.61,0,0,0,2-.3,5.07,5.07,0,0,0,1.64-.83,3.71,3.71,0,0,0,1.09-1.28,3.64,3.64,0,0,0,.38-1.68Z"/><line class="cls-1" x1="84.58" y1="86.62" x2="84.58" y2="85.06"/><path class="cls-1" d="M11.29,92.21c.1.45.21.9.32,1.35C11.5,93.11,11.39,92.66,11.29,92.21Z"/><path class="cls-1" d="M11.61,93.56c.12.45.25.89.38,1.33C11.86,94.45,11.73,94,11.61,93.56Z"/><path class="cls-1" d="M10.72,88.65c0-.13,0-.25,0-.38C10.69,88.4,10.7,88.52,10.72,88.65Z"/><path class="cls-1" d="M10.68,88.27c-.07-.75-.12-1.51-.14-2.28,0,.21,0,.42,0,.63C10.59,87.17,10.63,87.73,10.68,88.27Z"/><path class="cls-1" d="M10.54,86c0-.16,0-.33,0-.5C10.53,85.66,10.53,85.83,10.54,86Z"/><path class="cls-1" d="M10.52,85.06a33.2,33.2,0,0,1,7.12-20.6,33.22,33.22,0,0,0-7.12,20.6c0,.14,0,.29,0,.43C10.53,85.35,10.52,85.2,10.52,85.06Z"/><path class="cls-1" d="M10.94,90.32q-.09-.52-.15-1Q10.85,89.8,10.94,90.32Z"/><path class="cls-1" d="M10.79,89.27c0-.21,0-.41-.07-.62C10.74,88.86,10.76,89.06,10.79,89.27Z"/><path class="cls-1" d="M15.16,102a32.64,32.64,0,0,0,2.2,3.26A31,31,0,0,1,15.16,102Z"/><path class="cls-1" d="M18.14,63.83c.34-.41.69-.81,1.05-1.21C18.83,63,18.49,63.42,18.14,63.83Z"/><path class="cls-1" d="M63.51,46.8a5.26,5.26,0,0,0-1-1.29h0a5.3,5.3,0,0,0-.52-.42l-.29-.18h0a5.24,5.24,0,0,0-1.33-.57h0c-.7-.28-1.41-.55-2.13-.79l-.58-.2-.65-.21c-1.17-.36-2.36-.68-3.57-.94l-.1,0L52.22,42l-1.29-.23-.46-.07-1.23-.17-.53-.06-.6-.06-.5,0c-.63-.06-1.26-.09-1.9-.12l-.6,0-1.22,0-1.44,0A43.89,43.89,0,0,0,0,85.06c0,.27,0,.54,0,.82s0,.49,0,.74,0,.45,0,.67,0,.53,0,.79,0,.39,0,.59,0,.31,0,.47,0,.27,0,.41c.05.57.13,1.14.21,1.71l.06.46c.07.43.14.85.22,1.28l.09.51.12.6c.15.69.31,1.38.49,2.06l.17.65c.07.22.13.43.19.65s.11.35.16.53c.11.34.21.69.33,1,.18.53.36,1,.56,1.57,0,.13.1.25.14.37.31.78.63,1.56,1,2.32.06.11.11.23.16.34q.33.72.69,1.41l.24.46s0,.09.07.13c.16.3.32.6.49.9l.48.83.11.18c.14.25.29.49.44.73a1.3,1.3,0,0,0,.1.15c.18.3.37.59.57.89l.49.72c.1.15.2.3.31.44s.27.37.41.56l.21.29.45.59,0,.06.65.82c.17.2.33.4.5.59l.08.1c.2.22.39.45.59.68,0,0,0,0,0,0,.19.22.39.43.58.64l.62.66.63.64.64.63c.41.39.83.77,1.25,1.15l.08.07.68.58c.22.2.46.39.69.58l.57.46.17.13.67.51h0l.73.53.11.08.63.44.75.5.7.46.12.07c.49.3,1,.6,1.49.89l.73.41a.3.3,0,0,1,.11.06l.75.39.15.08.61.3.13.07,1.57.73.1,0,.74.32.74.29.11,0,.83.31.06,0,.83.29.69.23.26.08.8.25.76.22,1.07.28.77.19.09,0c.65.15,1.31.28,2,.4h.08l.38.07h0a4.94,4.94,0,0,0,.68,0,5.28,5.28,0,0,0,5.26-5v-.28a5.24,5.24,0,0,0-.71-2.64,5.45,5.45,0,0,0-1.05-1.29h0a3.48,3.48,0,0,0-.52-.41,2.2,2.2,0,0,0-.28-.18h0a5.39,5.39,0,0,0-1.33-.57h0l-.14,0a6,6,0,0,0-.61-.1q-.72-.14-1.44-.3l-.62-.15-.34-.09-.68-.18a32.71,32.71,0,0,1-5.95-2.34l-.53-.28a34.43,34.43,0,0,1-3.53-2.17l-.58-.42-.74-.56-.56-.45-.5-.41-.17-.15-.53-.46-.58-.53-.56-.55c-.19-.18-.37-.37-.56-.56l-.54-.57-.52-.58-.52-.6-.5-.61-.48-.62a31,31,0,0,1-2.2-3.26l-.29-.49-.27-.49-.27-.49c-.08-.17-.17-.34-.26-.51-.18-.36-.35-.72-.52-1.09s-.44-1-.64-1.49c-.08-.21-.17-.42-.25-.64s-.13-.35-.19-.53-.07-.18-.1-.26l-.17-.5L12,94.89c-.13-.44-.26-.88-.38-1.33s-.22-.9-.32-1.35c0-.23-.09-.46-.14-.68s-.08-.4-.11-.6-.07-.41-.1-.61a32.56,32.56,0,0,1-.42-5.26,33.2,33.2,0,0,1,7.12-20.6l.5-.63c.34-.41.69-.81,1.05-1.21s.73-.78,1.11-1.15a33.23,33.23,0,0,1,22.15-9.75l1.44,0H45l.56,0,.82.05.38,0,.48,0,.18,0,.76.09h0l.78.11.14,0,.64.11c.32,0,.64.11.95.18l.63.14.38.08c.39.1.77.19,1.15.3l.56.16.74.23.7.23.64.23.34.13.47.18.36.15a5.31,5.31,0,0,0,.55.23,5.19,5.19,0,0,0,1.77.31,5.29,5.29,0,0,0,5.28-5c0-.09,0-.18,0-.27A5.22,5.22,0,0,0,63.51,46.8Z"/><rect class="cls-1" x="70.53" width="10.85" height="128.95" rx="5.42"/><path class="cls-1" d="M47.87,86.62a5.43,5.43,0,0,0,0,10.85h5.5v26.05a5.43,5.43,0,1,0,10.85,0V86.62Z"/></g></g></svg>