<svg xmlns="http://www.w3.org/2000/svg" viewBox="0 0 37.98 29.02"><defs><style>.cls-1{fill:#c3e8d3;}.cls-2{fill:#fff;}.cls-3{fill:#27b45f;}</style></defs><title>digides_administrasi</title><g id="Layer_2" data-name="Layer 2"><g id="Layer_1-2" data-name="Layer 1"><path class="cls-1" d="M16.35.91a53.37,53.37,0,0,1-11,4c-5,1-6,5-5,10s9,3,10,6,3,9,16,8,13-12,10-14-7-2-7-7-6-10-13-7"/><path class="cls-1" d="M31.35,1.91s-1.1,5.82,1.45,6.91,5.55-.91,4.55-3.91-5-5-6-3"/><path class="cls-2" d="M22.15,28.11c-6.23,0-10.32-2.34-12.15-7l-.43-.09-.09,0c-1.95-.4-6-1.24-6.87-5.54C.85,6.67,7,4.74,8.89,4.35a33.32,33.32,0,0,0,6.66-2.44l.2-.09A10.86,10.86,0,0,1,20.08.91,9.86,9.86,0,0,1,25.6,2.6a4.72,4.72,0,0,1,2.87-.94,7.53,7.53,0,0,1,6.59,5.09A5.75,5.75,0,0,1,34.32,12a5.53,5.53,0,0,1-.47.55,8.09,8.09,0,0,1,1.51,7.51c-1.19,4.55-5.31,7.53-11,8-.76.06-1.49.09-2.18.09M20.08,1.25a10.64,10.64,0,0,0-4.2.89l-.17.08A34.87,34.87,0,0,1,9,4.69c-1.83.37-7.7,2.23-6,10.73.81,4.08,4.72,4.89,6.6,5.28l.09,0,.52.11.09,0,0,.08C12,25.47,16,27.77,22.15,27.77c.68,0,1.41,0,2.15-.09C29.87,27.25,33.88,24.37,35,20a7.66,7.66,0,0,0-1.54-7.29l-.12-.12.12-.13a5.88,5.88,0,0,0,.55-.63,5.43,5.43,0,0,0,.69-4.93A7.15,7.15,0,0,0,28.47,2,4.28,4.28,0,0,0,25.72,3l-.1.08L25.51,3a9.58,9.58,0,0,0-5.43-1.7"/><path class="cls-3" d="M31.3,4.31H6.83a1.5,1.5,0,0,0-1.5,1.5V22.3a1.5,1.5,0,0,0,1.5,1.5H31.3a1.5,1.5,0,0,0,1.5-1.5V5.81a1.5,1.5,0,0,0-1.5-1.5m.5,18a.5.5,0,0,1-.5.5H6.83a.5.5,0,0,1-.5-.5V5.81a.5.5,0,0,1,.5-.5H31.3a.5.5,0,0,1,.5.5Z"/><path class="cls-2" d="M31.8,5.81V22.3a.5.5,0,0,1-.5.5H6.83a.5.5,0,0,1-.5-.5V5.81a.5.5,0,0,1,.5-.5H31.3a.5.5,0,0,1,.5.5"/><path class="cls-3" d="M17.64,11.33H9.27a.5.5,0,0,1-.5-.5V8.64a.5.5,0,0,1,.5-.5h8.37a.5.5,0,0,1,.5.5v2.19a.5.5,0,0,1-.5.5m-7.87-1h7.37V9.14H9.77Z"/><path class="cls-3" d="M17.64,15.65H9.27a.51.51,0,0,1-.5-.5V13a.51.51,0,0,1,.5-.5h8.37a.5.5,0,0,1,.5.5v2.2a.5.5,0,0,1-.5.5m-7.87-1h7.37V13.46H9.77Z"/><path class="cls-3" d="M17.64,20H9.27a.5.5,0,0,1-.5-.5V17.27a.5.5,0,0,1,.5-.5h8.37a.5.5,0,0,1,.5.5v2.19a.5.5,0,0,1-.5.5M9.77,19h7.37V17.77H9.77Z"/><path class="cls-3" d="M28.85,11.33H20.48a.5.5,0,0,1-.5-.5V8.64a.5.5,0,0,1,.5-.5h8.37a.5.5,0,0,1,.5.5v2.19a.5.5,0,0,1-.5.5m-7.87-1h7.37V9.14H21Z"/><path class="cls-3" d="M23.86,15.65H20.48a.51.51,0,0,1-.5-.5V13a.51.51,0,0,1,.5-.5h3.38a.5.5,0,0,1,.5.5v2.2a.5.5,0,0,1-.5.5m-2.88-1h2.38V13.46H21Z"/><path class="cls-3" d="M28.85,15.65H25.47a.51.51,0,0,1-.5-.5V13a.51.51,0,0,1,.5-.5h3.38a.5.5,0,0,1,.5.5v2.2a.5.5,0,0,1-.5.5m-2.88-1h2.38V13.46H26Z"/><path class="cls-3" d="M28.85,20H20.48a.5.5,0,0,1-.5-.5V17.27a.5.5,0,0,1,.5-.5h8.37a.5.5,0,0,1,.5.5v2.19a.5.5,0,0,1-.5.5M21,19h7.37V17.77H21Z"/></g></g></svg>