<svg xmlns="http://www.w3.org/2000/svg" viewBox="0 0 37.98 29.02"><defs><style>.cls-1{fill:#c3e8d3;}.cls-2{fill:#fff;}.cls-3{fill:#27b45f;}</style></defs><title>digides_webdesa</title><g id="Layer_2" data-name="Layer 2"><g id="Layer_1-2" data-name="Layer 1"><path class="cls-1" d="M16.35.91a53.37,53.37,0,0,1-11,4c-5,1-6,5-5,10s9,3,10,6,3,9,16,8,13-12,10-14-7-2-7-7-6-10-13-7"/><path class="cls-1" d="M31.35,1.91s-1.1,5.82,1.45,6.91,5.55-.91,4.55-3.91-5-5-6-3"/><path class="cls-2" d="M22.15,28.11c-6.23,0-10.32-2.34-12.15-7l-.43-.09-.09,0c-1.95-.4-6-1.24-6.87-5.54C.85,6.67,7,4.74,8.89,4.35a33.32,33.32,0,0,0,6.66-2.44l.2-.09A10.86,10.86,0,0,1,20.08.91,9.86,9.86,0,0,1,25.6,2.6a4.72,4.72,0,0,1,2.87-.94,7.53,7.53,0,0,1,6.59,5.09A5.75,5.75,0,0,1,34.32,12a5.53,5.53,0,0,1-.47.55,8.09,8.09,0,0,1,1.51,7.51c-1.19,4.55-5.31,7.53-11,8-.76.06-1.49.09-2.18.09M20.08,1.25a10.64,10.64,0,0,0-4.2.89l-.17.08A34.87,34.87,0,0,1,9,4.69c-1.83.37-7.7,2.23-6,10.73.81,4.08,4.72,4.89,6.6,5.28l.09,0,.52.11.09,0,0,.08C12,25.47,16,27.77,22.15,27.77c.68,0,1.41,0,2.15-.09C29.87,27.25,33.88,24.37,35,20a7.66,7.66,0,0,0-1.54-7.29l-.12-.12.12-.13a5.88,5.88,0,0,0,.55-.63,5.43,5.43,0,0,0,.69-4.93A7.15,7.15,0,0,0,28.47,2,4.28,4.28,0,0,0,25.72,3l-.1.08L25.51,3a9.58,9.58,0,0,0-5.43-1.7"/><path class="cls-2" d="M31.37,21.18a1.12,1.12,0,0,0,0-.31l-1.13-5V5.72a1.44,1.44,0,0,0-1.38-1.49H9.89A1.44,1.44,0,0,0,8.51,5.72V15.88L7.45,20.59l0,.24a1.2,1.2,0,0,0,0,.35.44.44,0,0,0,0,.1.29.29,0,0,0,0,.09V22A1.86,1.86,0,0,0,9.3,23.8H29.42A1.87,1.87,0,0,0,31.37,22v-.67s0-.06,0-.09,0-.07,0-.1"/><path class="cls-3" d="M29.71,16.44H9a.5.5,0,0,1-.5-.5V5.72A1.44,1.44,0,0,1,9.89,4.23H28.83a1.44,1.44,0,0,1,1.38,1.49V15.94a.5.5,0,0,1-.5.5m-20.2-1h19.7V5.72a.45.45,0,0,0-.38-.49H9.89a.45.45,0,0,0-.38.49Z"/><path class="cls-3" d="M30.17,22.41H8.56a1.19,1.19,0,0,1-1.2-1.23,1.2,1.2,0,0,1,0-.35l0-.24,1.07-4.76A.49.49,0,0,1,9,15.44H29.72a.49.49,0,0,1,.48.39l1.14,5a1.12,1.12,0,0,1,0,.31,1.19,1.19,0,0,1-1.2,1.23m-20.76-6-1,4.64c0,.17,0,.33.19.33H30.17a.2.2,0,0,0,.2-.23v-.07l-1.05-4.67Z"/><path class="cls-3" d="M23,16.44H19.36a.5.5,0,0,1-.5-.5V11.26a.5.5,0,0,1,.5-.5H23a.5.5,0,0,1,.5.5v4.68a.5.5,0,0,1-.5.5m-3.11-1h2.61V11.76H19.86Z"/><path class="cls-3" d="M23,11.76H19.36A.5.5,0,0,1,19,11l1.81-2.23a.52.52,0,0,1,.77,0L23.36,11a.5.5,0,0,1-.39.81m-2.56-1h1.51l-.75-.93Z"/><path class="cls-3" d="M26.59,16.44a.5.5,0,0,1-.5-.5V10.65a.5.5,0,0,1,.5-.5.5.5,0,0,1,.5.5v5.29a.5.5,0,0,1-.5.5"/><path class="cls-3" d="M26.59,13.45a.5.5,0,0,1-.41-.22.49.49,0,0,1,.13-.69l1.32-.92a.5.5,0,0,1,.57.83l-1.32.91a.52.52,0,0,1-.29.09"/><path class="cls-3" d="M26.59,14.71a.47.47,0,0,1-.28-.09L25,13.71a.52.52,0,0,1-.13-.7.51.51,0,0,1,.7-.13l1.33.92a.5.5,0,0,1,.12.69.49.49,0,0,1-.41.22"/><path class="cls-3" d="M26.59,11.15a1.86,1.86,0,0,1-1.78-1.93,1.79,1.79,0,1,1,3.56,0,1.86,1.86,0,0,1-1.78,1.93m0-2.86a.87.87,0,0,0-.78.93.79.79,0,1,0,1.56,0,.87.87,0,0,0-.78-.93"/><path class="cls-3" d="M13.89,9.17H12.15a.5.5,0,0,1-.5-.5.5.5,0,0,1,.5-.5h1.74a.5.5,0,0,1,.5.5.5.5,0,0,1-.5.5"/><path class="cls-3" d="M16.54,11.34H12.15a.5.5,0,0,1,0-1h4.39a.5.5,0,0,1,0,1"/><path class="cls-3" d="M16.54,13.51H12.15a.5.5,0,0,1-.5-.5.5.5,0,0,1,.5-.5h4.39a.5.5,0,0,1,.5.5.5.5,0,0,1-.5.5"/><path class="cls-3" d="M29.42,23.8H9.3A1.86,1.86,0,0,1,7.36,22v-.67a.5.5,0,0,1,.5-.5.5.5,0,0,1,.5.5c0,.06,0,.25.2.25H30.17c.18,0,.2-.19.2-.25a.5.5,0,0,1,.5-.5.5.5,0,0,1,.5.5V22a1.87,1.87,0,0,1-1.95,1.76M8.71,22.62a1.06,1.06,0,0,0,.59.18H29.42a1.11,1.11,0,0,0,.6-.18Z"/><path class="cls-3" d="M21.82,22.62H16.9a.52.52,0,0,1-.37-.16.51.51,0,0,1-.12-.39l.13-1.32a1.12,1.12,0,0,1,1.12-.95h3.4a1.12,1.12,0,0,1,1.12.95l.14,1.32a.52.52,0,0,1-.13.39.51.51,0,0,1-.37.16m-4.36-1h3.8l-.08-.77a.15.15,0,0,0-.12-.05h-3.4c-.07,0-.12,0-.12.06Z"/></g></g></svg>