<svg xmlns="http://www.w3.org/2000/svg" viewBox="0 0 37.98 29.02"><defs><style>.cls-1{fill:#c3e8d3;}.cls-2{fill:#fff;}.cls-3{fill:#27b45f;}</style></defs><title>digides_app</title><g id="Layer_2" data-name="Layer 2"><g id="Layer_1-2" data-name="Layer 1"><path class="cls-1" d="M16.35.91a53.37,53.37,0,0,1-11,4c-5,1-6,5-5,10s9,3,10,6,3,9,16,8,13-12,10-14-7-2-7-7-6-10-13-7"/><path class="cls-1" d="M31.35,1.91s-1.1,5.82,1.45,6.91,5.55-.91,4.55-3.91-5-5-6-3"/><path class="cls-2" d="M22.15,28.11c-6.23,0-10.32-2.34-12.15-7l-.43-.09-.09,0c-1.95-.4-6-1.24-6.87-5.54C.85,6.67,7,4.74,8.89,4.35a33.32,33.32,0,0,0,6.66-2.44l.2-.09A10.86,10.86,0,0,1,20.08.91,9.86,9.86,0,0,1,25.6,2.6a4.72,4.72,0,0,1,2.87-.94,7.53,7.53,0,0,1,6.59,5.09A5.75,5.75,0,0,1,34.32,12a5.53,5.53,0,0,1-.47.55,8.09,8.09,0,0,1,1.51,7.51c-1.19,4.55-5.31,7.53-11,8-.76.06-1.49.09-2.18.09M20.08,1.25a10.64,10.64,0,0,0-4.2.89l-.17.08A34.87,34.87,0,0,1,9,4.69c-1.83.37-7.7,2.23-6,10.73.81,4.08,4.72,4.89,6.6,5.28l.09,0,.52.11.09,0,0,.08C12,25.47,16,27.77,22.15,27.77c.68,0,1.41,0,2.15-.09C29.87,27.25,33.88,24.37,35,20a7.66,7.66,0,0,0-1.54-7.29l-.12-.12.12-.13a5.88,5.88,0,0,0,.55-.63,5.43,5.43,0,0,0,.69-4.93A7.15,7.15,0,0,0,28.47,2,4.28,4.28,0,0,0,25.72,3l-.1.08L25.51,3a9.58,9.58,0,0,0-5.43-1.7"/><path class="cls-2" d="M22.6,3.53H14.88A2.92,2.92,0,0,0,12,6.44V23.57a2.92,2.92,0,0,0,2.92,2.92H22.6a2.92,2.92,0,0,0,2.91-2.92V6.44A2.92,2.92,0,0,0,22.6,3.53"/><rect class="cls-2" x="7.35" y="8.91" width="23" height="12"/><path class="cls-3" d="M22.6,26.49H14.88A2.92,2.92,0,0,1,12,23.57V6.44a2.92,2.92,0,0,1,2.92-2.91H22.6a2.92,2.92,0,0,1,2.91,2.91V23.57a2.92,2.92,0,0,1-2.91,2.92m-7.72-22A1.92,1.92,0,0,0,13,6.44V23.57a1.92,1.92,0,0,0,1.92,1.92H22.6a1.92,1.92,0,0,0,1.91-1.92V6.44A1.92,1.92,0,0,0,22.6,4.53Z"/><path class="cls-3" d="M20.64,7.16h-3.8a.5.5,0,0,1-.5-.5.5.5,0,0,1,.5-.5h3.8a.5.5,0,0,1,.5.5.5.5,0,0,1-.5.5"/><path class="cls-3" d="M25,23.15H12.46a.5.5,0,0,1-.5-.5.51.51,0,0,1,.5-.5H25a.5.5,0,0,1,.5.5.5.5,0,0,1-.5.5"/><path class="cls-3" d="M18.38,12.85a2.48,2.48,0,0,1,.93.18.31.31,0,0,1,.16.38.29.29,0,0,1-.36.18,4.43,4.43,0,0,0-.49-.13,1.6,1.6,0,0,0-1.06.17,1.77,1.77,0,0,0-.95,1.21,1.7,1.7,0,0,0,.3,1.49A1.78,1.78,0,0,0,18,17a.29.29,0,1,1-.11.57,2.23,2.23,0,0,1-.9-.37,2.34,2.34,0,0,1-1-1.53,2.59,2.59,0,0,1,0-.47A2.4,2.4,0,0,1,17.3,13.1a2.08,2.08,0,0,1,.78-.23l.3,0"/><path class="cls-3" d="M19.83,14.12V10.9a.28.28,0,0,1,.27-.3.27.27,0,0,1,.31.25.88.88,0,0,1,0,.16v6.27c0,.22-.07.31-.22.36a.29.29,0,0,1-.38-.27Z"/><path class="cls-3" d="M19.49,15.34v2a.29.29,0,0,1-.31.31.29.29,0,0,1-.29-.31V16c-.13,0-.25,0-.36,0a.28.28,0,0,1-.24-.29.28.28,0,0,1,.24-.29h1"/><path class="cls-3" d="M29.07,21.6H26.91a.5.5,0,0,1-.5-.5.5.5,0,0,1,.5-.5h2.16a.82.82,0,0,0,.82-.82V10.25a.82.82,0,0,0-.82-.82H26.91a.5.5,0,0,1-.5-.5.5.5,0,0,1,.5-.5h2.16a1.82,1.82,0,0,1,1.82,1.82v9.53a1.83,1.83,0,0,1-1.82,1.82"/><path class="cls-3" d="M30.39,19.75H26.91a.5.5,0,0,1-.5-.5.5.5,0,0,1,.5-.5h3.48a.5.5,0,0,1,.5.5.51.51,0,0,1-.5.5"/><path class="cls-3" d="M10.78,21.6H8.62A1.82,1.82,0,0,1,6.8,19.78V10.25A1.81,1.81,0,0,1,8.62,8.43h2.16a.5.5,0,0,1,.5.5.51.51,0,0,1-.5.5H8.62a.82.82,0,0,0-.82.82v9.53a.82.82,0,0,0,.82.82h2.16a.5.5,0,0,1,.5.5.51.51,0,0,1-.5.5"/><path class="cls-3" d="M10.78,19.75H7.3a.5.5,0,0,1-.5-.5.5.5,0,0,1,.5-.5h3.48a.5.5,0,0,1,.5.5.51.51,0,0,1-.5.5"/></g></g></svg>