<svg width="90" height="90" viewBox="0 0 90 90" fill="none" xmlns="http://www.w3.org/2000/svg">
<g clip-path="url(#clip0)">
<rect x="19.137" y="3.46411" width="48.0053" height="82.746" rx="5" fill="white"/>
<ellipse cx="66.8265" cy="57.1542" rx="15.4754" ry="15.1596" fill="white"/>
<path d="M66.9844 76.6406C66.168 76.6406 65.5 77.3086 65.5 78.125V82.5781C65.5 85.0459 63.5146 87.0312 61.0469 87.0312C58.5791 87.0312 56.5938 85.0459 56.5938 82.5781V78.125C56.5938 77.3086 55.9258 76.6406 55.1094 76.6406H19.4844V8.35938C19.4844 5.8916 21.4697 3.90625 23.9375 3.90625H66.9844C66.0195 5.18652 65.5 6.74512 65.5 8.35938V36.5625C65.5 37.3789 66.168 38.0469 66.9844 38.0469C67.8008 38.0469 68.4688 37.3789 68.4688 36.5625V20.2344H78.8594C79.6758 20.2344 80.3438 19.5664 80.3438 18.75V8.35938C80.3438 4.25879 77.0225 0.9375 72.9219 0.9375H23.9375C19.8369 0.9375 16.5156 4.25879 16.5156 8.35938V76.6406H7.60938C6.79297 76.6406 6.125 77.3086 6.125 78.125V82.5781C6.125 86.6787 9.44629 90 13.5469 90H61.0469C65.1475 90 68.4688 86.6787 68.4688 82.5781V78.125C68.4688 77.3086 67.8008 76.6406 66.9844 76.6406ZM77.375 8.35938V17.2656H68.4688V8.35938C68.4688 5.8916 70.4541 3.90625 72.9219 3.90625C75.3896 3.90625 77.375 5.8916 77.375 8.35938ZM13.5469 87.0312C11.0791 87.0312 9.09375 85.0459 9.09375 82.5781V79.6094H53.625V82.5781C53.625 84.1924 54.1445 85.751 55.1094 87.0312H13.5469Z" fill="#27B45F"/>
<path d="M66.9844 41.0156C63.7744 41.0156 60.6572 41.9619 57.9854 43.7246C57.4473 43.9473 57.0762 44.4854 57.0762 45.0791C57.0762 45.6729 57.4102 46.2109 57.9482 46.4521C58.4863 46.6934 59.1172 46.6006 59.5625 46.1924C65.2773 42.3887 72.9404 43.5391 77.3008 48.8457C81.6426 54.1523 81.2715 61.9082 76.4102 66.751C71.5488 71.5938 63.8115 71.9834 58.5049 67.6416C53.1982 63.2998 52.0479 55.6182 55.8516 49.9033C56.2041 49.458 56.2783 48.8643 56.0371 48.3447C55.7959 47.8252 55.2949 47.4912 54.7383 47.4727C54.1816 47.4541 53.6436 47.751 53.3838 48.252C51.6025 50.9238 50.6563 54.0781 50.6748 57.3066C50.6748 66.3242 57.9854 73.6348 67.0029 73.6348C76.0205 73.6348 83.3311 66.3242 83.3311 57.3066C83.3311 48.2891 76.0019 41.0156 66.9844 41.0156Z" fill="#27B45F"/>
<path d="M61.0469 33.5938C61.0469 32.7773 60.3789 32.1094 59.5625 32.1094H35.8125C34.9961 32.1094 34.3281 32.7773 34.3281 33.5938C34.3281 34.4102 34.9961 35.0781 35.8125 35.0781H59.5625C60.3789 35.0781 61.0469 34.4102 61.0469 33.5938Z" fill="#27B45F"/>
<path d="M49.1719 39.5312H26.9062C26.0898 39.5312 25.4219 40.1992 25.4219 41.0156C25.4219 41.832 26.0898 42.5 26.9062 42.5H49.1719C49.9883 42.5 50.6562 41.832 50.6562 41.0156C50.6562 40.1992 49.9883 39.5312 49.1719 39.5312Z" fill="#27B45F"/>
<path d="M46.2031 49.9219C47.0195 49.9219 47.6875 49.2539 47.6875 48.4375C47.6875 47.6211 47.0195 46.9531 46.2031 46.9531H41.75C40.9336 46.9531 40.2656 47.6211 40.2656 48.4375C40.2656 49.2539 40.9336 49.9219 41.75 49.9219H46.2031Z" fill="#27B45F"/>
<path d="M25.4219 55.8594C25.4219 56.6758 26.0898 57.3437 26.9062 57.3437H44.7188C45.5352 57.3437 46.2031 56.6758 46.2031 55.8594C46.2031 55.043 45.5352 54.375 44.7188 54.375H26.9062C26.0898 54.375 25.4219 55.043 25.4219 55.8594Z" fill="#27B45F"/>
<path d="M44.7188 61.7969H31.3594C30.543 61.7969 29.875 62.4648 29.875 63.2812C29.875 64.0977 30.543 64.7656 31.3594 64.7656H44.7188C45.5352 64.7656 46.2031 64.0977 46.2031 63.2812C46.2031 62.4648 45.5352 61.7969 44.7188 61.7969Z" fill="#27B45F"/>
<path d="M26.9062 72.1875H50.6562C51.4727 72.1875 52.1406 71.5195 52.1406 70.7031C52.1406 69.8867 51.4727 69.2188 50.6562 69.2188H26.9062C26.0898 69.2188 25.4219 69.8867 25.4219 70.7031C25.4219 71.5195 26.0898 72.1875 26.9062 72.1875Z" fill="#27B45F"/>
<path d="M35.8125 46.9531H26.9062C26.0898 46.9531 25.4219 47.6211 25.4219 48.4375C25.4219 49.2539 26.0898 49.9219 26.9062 49.9219H35.8125C36.6289 49.9219 37.2969 49.2539 37.2969 48.4375C37.2969 47.6211 36.6289 46.9531 35.8125 46.9531Z" fill="#27B45F"/>
<path d="M24.5683 17.21V20.1973C24.5683 20.6426 24.1973 21.0137 23.7519 21.0137C23.3066 21.0137 22.9355 20.6426 22.9355 20.1973V12.2373C22.9355 11.792 23.3066 11.4209 23.7519 11.4209H26.4424C28.0937 11.4209 29.3926 12.3301 29.3926 14.3154C29.3926 16.2637 28.1123 17.21 26.4424 17.21H24.5683ZM24.5683 12.8867V15.7441H26.3125C27.1846 15.7441 27.7041 15.2246 27.7041 14.3154C27.7041 13.3877 27.166 12.8867 26.3125 12.8867H24.5683Z" fill="#27B45F"/>
<path d="M23.7519 21.1992C23.1953 21.1992 22.75 20.7539 22.75 20.1973V12.2373C22.75 11.6807 23.1953 11.2354 23.7519 11.2354H26.4424C28.3906 11.2354 29.5781 12.4043 29.5781 14.3154C29.5781 16.2266 28.3721 17.3955 26.4424 17.3955H24.7539V20.1973C24.7539 20.7539 24.29 21.1992 23.7519 21.1992ZM23.7519 11.6064C23.3994 11.6064 23.1211 11.8848 23.1211 12.2373V20.1973C23.1211 20.5498 23.3994 20.8281 23.7519 20.8281C24.1045 20.8281 24.3828 20.5498 24.3828 20.1973V17.0244H26.4424C28.1865 17.0244 29.207 16.0039 29.207 14.3154C29.207 12.627 28.168 11.6064 26.4424 11.6064H23.7519ZM26.3125 15.9297H24.3828V12.7012H26.3125C27.2959 12.7012 27.8896 13.2949 27.8896 14.3154C27.8896 15.3359 27.2959 15.9297 26.3125 15.9297ZM24.7539 15.5586H26.3125C27.0918 15.5586 27.5185 15.1133 27.5185 14.3154C27.5185 13.5176 27.0918 13.0723 26.3125 13.0723H24.7539V15.5586Z" fill="#27B45F"/>
<path d="M32.2686 18.4346L31.415 20.4756C31.2852 20.7725 31.0254 21.0137 30.6543 21.0137C30.209 21.0137 29.8564 20.6426 29.8564 20.2158C29.8564 20.123 29.875 20.0117 29.9121 19.9189L33.2334 11.8105C33.3262 11.6064 33.5488 11.3096 33.9756 11.3096C34.4023 11.3096 34.6436 11.625 34.7178 11.8105L38.0391 19.9189C38.0762 20.0117 38.0947 20.123 38.0947 20.2158C38.0947 20.6611 37.7236 21.0137 37.2969 21.0137C36.9258 21.0137 36.666 20.7725 36.5361 20.4756L35.6826 18.4346H32.2686ZM33.9756 13.9814L32.8252 16.9316H35.1445L33.9756 13.9814Z" fill="#27B45F"/>
<path d="M37.2969 21.1992C36.8887 21.1992 36.5361 20.958 36.3691 20.5498L35.5527 18.6201H32.3984L31.582 20.5498C31.415 20.958 31.0625 21.1992 30.6543 21.1992C30.1162 21.1992 29.6709 20.7539 29.6709 20.2158C29.6709 20.1416 29.6709 19.9932 29.7451 19.8447L33.0664 11.7549C33.1221 11.6064 33.3818 11.124 33.9756 11.124C34.5693 11.124 34.8291 11.6064 34.8848 11.7363L38.2061 19.8447C38.2617 19.9932 38.2803 20.1416 38.2803 20.2158C38.2803 20.7539 37.835 21.1992 37.2969 21.1992ZM32.1387 18.249H35.7939L36.7031 20.4014C36.8145 20.6611 37.0371 20.8281 37.2969 20.8281C37.6309 20.8281 37.9092 20.5498 37.9092 20.2158C37.9092 20.1416 37.8906 20.0488 37.8721 19.9932L34.5508 11.8848C34.4951 11.7734 34.3467 11.4951 33.9756 11.4951C33.6045 11.4951 33.4561 11.7734 33.4004 11.8848L30.0791 19.9746C30.0605 20.0303 30.042 20.123 30.042 20.1973C30.042 20.5313 30.3203 20.8096 30.6543 20.8096C30.9141 20.8096 31.1367 20.6426 31.248 20.3828L32.1387 18.249ZM35.4043 17.1357H32.5469L33.9756 13.4805L35.4043 17.1357ZM33.085 16.7646H34.8477L33.957 14.501L33.085 16.7646Z" fill="#27B45F"/>
<path d="M42.6592 12.126C42.6592 11.6807 43.0303 11.3096 43.4756 11.3096C43.9209 11.3096 44.292 11.6807 44.292 12.126V17.9521C44.292 19.752 43.4941 21.0879 41.3418 21.0879C40.7851 21.0879 40.0615 20.9395 39.6719 20.6982C39.4307 20.5684 39.2822 20.3457 39.2822 20.0488C39.2822 19.6406 39.5977 19.3252 40.0059 19.3252C40.1357 19.3252 40.21 19.3623 40.3213 19.3994C40.6738 19.5478 41.0449 19.6035 41.3418 19.6035C42.2881 19.6035 42.6592 18.8984 42.6592 17.9336V12.126Z" fill="#27B45F"/>
<path d="M41.3603 21.2734C40.8223 21.2734 40.043 21.1436 39.5791 20.8652C39.2822 20.6982 39.0967 20.4014 39.0967 20.0674C39.0967 19.5478 39.5049 19.1582 40.0059 19.1582C40.1543 19.1582 40.2656 19.1953 40.3955 19.2324C40.7109 19.3623 41.0635 19.4365 41.3418 19.4365C42.084 19.4365 42.4736 18.9355 42.4736 17.9521V12.126C42.4736 11.5693 42.9189 11.124 43.4756 11.124C44.0322 11.124 44.4775 11.5693 44.4775 12.126V17.9521C44.4775 20.0859 43.3642 21.2734 41.3603 21.2734ZM40.0244 19.5107C39.709 19.5107 39.4863 19.752 39.4863 20.0488C39.4863 20.2529 39.5976 20.4385 39.7832 20.5312C40.1357 20.7353 40.8037 20.8838 41.3789 20.8838C43.2158 20.8838 44.1435 19.8818 44.1435 17.9336V12.126C44.1435 11.7734 43.8652 11.4951 43.5127 11.4951C43.1601 11.4951 42.8818 11.7734 42.8818 12.126V17.9521C42.8818 19.1396 42.3437 19.8076 41.3789 19.8076C41.0449 19.8076 40.6553 19.7334 40.3027 19.585C40.1728 19.5293 40.1172 19.5107 40.0244 19.5107Z" fill="#27B45F"/>
<path d="M48.1142 18.4346L47.2607 20.4756C47.1308 20.7725 46.8711 21.0137 46.5 21.0137C46.0547 21.0137 45.7021 20.6426 45.7021 20.2158C45.7021 20.123 45.7207 20.0117 45.7578 19.9189L49.0791 11.8105C49.1719 11.6064 49.3945 11.3096 49.8213 11.3096C50.248 11.3096 50.4892 11.625 50.5635 11.8105L53.8847 19.9189C53.9219 20.0117 53.9404 20.123 53.9404 20.2158C53.9404 20.6611 53.5693 21.0137 53.1426 21.0137C52.7715 21.0137 52.5117 20.7725 52.3818 20.4756L51.5283 18.4346H48.1142ZM49.8213 13.9814L48.6709 16.9316H50.9902L49.8213 13.9814Z" fill="#27B45F"/>
<path d="M53.1426 21.1992C52.7344 21.1992 52.3818 20.958 52.2148 20.5498L51.3984 18.6201H48.2441L47.4277 20.5498C47.2607 20.958 46.9082 21.1992 46.5 21.1992C45.9619 21.1992 45.5166 20.7539 45.5166 20.2158C45.5166 20.1416 45.5166 19.9932 45.5908 19.8447L48.9121 11.7549C48.9678 11.6064 49.2275 11.124 49.8213 11.124C50.415 11.124 50.6748 11.6064 50.7305 11.7363L54.0518 19.8447C54.1074 19.9932 54.126 20.1416 54.126 20.2158C54.126 20.7539 53.6807 21.1992 53.1426 21.1992ZM48.0029 18.249H51.6582L52.5674 20.4014C52.6787 20.6611 52.9014 20.8281 53.1611 20.8281C53.4951 20.8281 53.7734 20.5498 53.7734 20.2158C53.7734 20.1416 53.7549 20.0488 53.7363 19.9932L50.3965 11.8848C50.3408 11.7734 50.1924 11.4951 49.8213 11.4951C49.4502 11.4951 49.3018 11.7734 49.2461 11.8848L45.9248 19.9746C45.9062 20.0303 45.8877 20.123 45.8877 20.1973C45.8877 20.5313 46.166 20.8096 46.5 20.8096C46.7598 20.8096 46.9824 20.6426 47.0938 20.3828L48.0029 18.249ZM51.25 17.1357H48.3926L49.8213 13.4805L51.25 17.1357ZM48.9307 16.7646H50.6934L49.8027 14.501L48.9307 16.7646Z" fill="#27B45F"/>
<path d="M57.4102 15.3545L60.7871 11.5879C60.9541 11.4023 61.1582 11.3281 61.3809 11.3281C61.8262 11.3281 62.1787 11.6807 62.1787 12.126C62.1787 12.3486 62.0859 12.5156 61.9746 12.6641L59.3213 15.54L62.4385 19.7891C62.5312 19.9189 62.5869 20.0859 62.5869 20.2529C62.5869 20.6982 62.2158 21.0508 61.7891 21.0508C61.4551 21.0508 61.2324 20.8467 61.1211 20.6982L58.2266 16.6904L57.4287 17.5439V20.2529C57.4287 20.6982 57.0576 21.0693 56.6123 21.0693C56.167 21.0693 55.7959 20.6982 55.7959 20.2529V12.126C55.7959 11.6807 56.167 11.3096 56.6123 11.3096C57.0576 11.3096 57.4287 11.6807 57.4287 12.126V15.3545H57.4102Z" fill="#27B45F"/>
<path d="M61.7705 21.1992C61.4551 21.1992 61.1582 21.0508 60.9541 20.7725L58.1895 16.9316L57.5957 17.5625V20.1973C57.5957 20.7539 57.1504 21.1992 56.5937 21.1992C56.0371 21.1992 55.5918 20.7539 55.5918 20.1973V12.126C55.5918 11.5693 56.0371 11.124 56.5937 11.124C57.1504 11.124 57.5957 11.5693 57.5957 12.126V14.8721L60.6572 11.458C60.8613 11.2539 61.1211 11.124 61.3809 11.124C61.9189 11.124 62.3643 11.5693 62.3643 12.1074C62.3643 12.3486 62.2715 12.5713 62.1045 12.7754L59.5625 15.54L62.5869 19.6592C62.6982 19.8076 62.7725 20.0303 62.7725 20.2344C62.7539 20.7539 62.3086 21.1992 61.7705 21.1992ZM58.2266 16.3564L61.251 20.5498C61.3437 20.6797 61.5107 20.8281 61.7705 20.8281C62.1045 20.8281 62.3828 20.5498 62.3828 20.2158C62.3828 20.0859 62.3457 19.9561 62.2715 19.8633L59.0615 15.5029L61.8076 12.5156C61.9189 12.3857 61.9746 12.2559 61.9746 12.1074C61.9746 11.7734 61.6963 11.4951 61.3623 11.4951C61.1953 11.4951 61.0283 11.5693 60.8984 11.6992L57.1875 15.8369V12.126C57.1875 11.7734 56.9092 11.4951 56.5566 11.4951C56.2041 11.4951 55.9258 11.7734 55.9258 12.126V20.1973C55.9258 20.5498 56.2041 20.8281 56.5566 20.8281C56.9092 20.8281 57.1875 20.5498 57.1875 20.1973V17.4141L58.2266 16.3564Z" fill="#27B45F"/>
<path d="M61.5664 57.2324V60.4609C61.5664 60.9619 61.1582 61.3701 60.6572 61.3701C60.1562 61.3701 59.748 60.9619 59.748 60.4609V51.6846C59.748 51.1836 60.1562 50.7754 60.6572 50.7754H63.626C65.7227 50.7754 66.9102 52.2598 66.9102 54.0225C66.9102 55.5068 66.001 56.9355 64.5166 57.1211L66.8174 59.9228C66.9658 60.1084 67.0029 60.2939 67.0029 60.4609C67.0029 60.9619 66.5947 61.3701 66.0938 61.3701C65.834 61.3701 65.5557 61.2402 65.3887 61.0361L62.5684 57.2324H61.5664ZM61.5664 52.3896V55.6367H63.6631C64.6279 55.6367 65.0547 54.8389 65.0547 54.0225C65.0547 53.1875 64.6279 52.3896 63.626 52.3896H61.5664Z" fill="#27B45F"/>
<path d="M66.0938 61.5371C65.7598 61.5371 65.4258 61.3887 65.2402 61.1475L62.457 57.418H61.7334V60.4609C61.7334 61.0547 61.251 61.5557 60.6387 61.5557C60.0264 61.5557 59.5439 61.0732 59.5439 60.4609V51.6846C59.5439 51.0908 60.0264 50.5898 60.6387 50.5898H63.6074C65.6484 50.5898 67.0772 52 67.0772 54.0225C67.0772 55.3955 66.3164 56.8799 64.8506 57.2324L66.9473 59.793C67.0957 59.9971 67.1699 60.2197 67.1699 60.4609C67.1885 61.0547 66.7061 61.5371 66.0938 61.5371ZM61.3809 57.0469H62.6611L65.5371 60.9248C65.6484 61.0732 65.8711 61.1846 66.0938 61.1846C66.4834 61.1846 66.8174 60.8691 66.8174 60.4609C66.8174 60.3125 66.7617 60.1641 66.669 60.0342L64.1641 56.9727L64.4981 56.9355C65.9639 56.75 66.7246 55.3398 66.7246 54.0225C66.7246 52.501 65.7598 50.9609 63.626 50.9609H60.6572C60.2676 50.9609 59.9336 51.2764 59.9336 51.6846V60.4609C59.9336 60.8506 60.249 61.1846 60.6572 61.1846C61.0469 61.1846 61.3809 60.8691 61.3809 60.4609V57.0469ZM63.6631 55.8223H61.3809V52.2041H63.626C64.6094 52.2041 65.2402 52.9092 65.2402 54.0225C65.2402 54.9316 64.7393 55.8223 63.6631 55.8223ZM61.752 55.4512H63.6631C64.5537 55.4512 64.8691 54.709 64.8691 54.0225C64.8691 53.6885 64.7764 52.5752 63.626 52.5752H61.752V55.4512Z" fill="#27B45F"/>
<path d="M71.9014 53.9668C73.9424 53.9668 75.0557 55.1543 75.0557 57.6963C75.0557 60.2383 73.9238 61.4443 71.9014 61.4443C71.1221 61.4443 70.4355 61.2031 70.0645 60.7764V63.5225C70.0645 63.9863 69.6934 64.3574 69.2295 64.3574C68.7656 64.3574 68.3945 63.9863 68.3945 63.5225V54.8945C68.3945 54.4307 68.7656 54.0596 69.2295 54.0596C69.6934 54.0596 70.0645 54.4307 70.0645 54.8945C70.3057 54.5049 71.0293 53.9668 71.9014 53.9668ZM71.6787 55.3955C70.584 55.3955 70.0088 56.1748 70.0088 57.7148C70.0088 59.2363 70.584 60.0156 71.6787 60.0156C72.7734 60.0156 73.3486 59.2363 73.3486 57.7148C73.3486 56.1748 72.7734 55.3955 71.6787 55.3955Z" fill="#27B45F"/>
<path d="M69.2295 64.543C68.6729 64.543 68.209 64.0791 68.209 63.5225V54.8945C68.209 54.3379 68.6729 53.874 69.2295 53.874C69.6563 53.874 70.0088 54.1338 70.1758 54.4863C70.5469 54.1338 71.1777 53.7812 71.9014 53.7812C74.0908 53.7812 75.2412 55.1357 75.2412 57.6963C75.2412 60.9434 73.4229 61.6299 71.9014 61.6299C71.252 61.6299 70.6768 61.4629 70.25 61.1846V63.5225C70.25 64.0791 69.7861 64.543 69.2295 64.543ZM69.2295 54.2451C68.8584 54.2451 68.5801 54.5234 68.5801 54.8945V63.5225C68.5801 63.8936 68.8584 64.1719 69.2295 64.1719C69.6006 64.1719 69.8789 63.8936 69.8789 63.5225V60.2754L70.1943 60.6465C70.5283 61.0176 71.1592 61.2588 71.8828 61.2588C73.8496 61.2588 74.8516 60.0527 74.8516 57.6963C74.8516 55.3027 73.8867 54.1523 71.8828 54.1523C71.085 54.1523 70.417 54.6533 70.2129 54.9873L69.8604 55.5625V54.8945C69.8789 54.5234 69.6006 54.2451 69.2295 54.2451ZM71.6787 60.2012C70.8438 60.2012 69.8232 59.7744 69.8232 57.7148C69.8232 55.6553 70.8252 55.21 71.6787 55.21C72.5322 55.21 73.5342 55.6367 73.5342 57.7148C73.5342 59.7559 72.5322 60.2012 71.6787 60.2012ZM71.6787 55.5811C70.6953 55.5811 70.1943 56.3047 70.1943 57.7148C70.1943 59.125 70.6953 59.8301 71.6787 59.8301C72.6621 59.8301 73.1631 59.125 73.1631 57.7148C73.1631 56.2861 72.6621 55.5811 71.6787 55.5811Z" fill="#27B45F"/>
</g>
<defs>
<clipPath id="clip0">
<rect width="89.0625" height="89.0625" fill="white" transform="translate(0.1875 0.9375)"/>
</clipPath>
</defs>
</svg>
