<svg width="87" height="84" viewBox="0 0 87 84" fill="none" xmlns="http://www.w3.org/2000/svg">
<path fill-rule="evenodd" clip-rule="evenodd" d="M7.90812 8.90848C-2.63604 19.4526 -2.63604 36.5481 7.90812 47.0922L34.0711 73.2552C36.407 75.5912 39.0645 77.4096 41.9011 78.7106L47.8162 71.3167L54.3162 66.3167L57.8162 61.3167L63.8162 56.8167L67.8162 51.3167L78.7007 45.3797C77.4085 41.6137 75.2599 38.0765 72.2548 35.0714L46.0919 8.90848C35.5477 -1.63567 18.4523 -1.63567 7.90812 8.90848Z" fill="white"/>
<path fill-rule="evenodd" clip-rule="evenodd" d="M78.2547 7.90848C67.7106 -2.63567 50.6151 -2.63567 40.071 7.90848L13.908 34.0714C9.12692 38.8525 6.51374 44.9806 6.06848 51.2341L8.81614 48.8162V54.8162L14.8161 59.8162L16.8161 65.8162L23.8161 69.8162L25.8161 73.8162L34.3161 77.3162L36.8841 79.8841C42.4487 79.0796 47.8103 76.5367 52.0918 72.2552L78.2547 46.0923C88.7989 35.5481 88.7989 18.4526 78.2547 7.90848Z" fill="white"/>
<path d="M78.8681 11.1265C69.0493 1.24365 52.8446 1.73493 43.4961 12.0078C34.1469 1.73529 17.9429 1.24347 8.12402 11.1267C-1.63998 20.8589 -1.30735 36.8848 8.75293 46.278C3.60608 51.1979 6.55464 60.0388 13.5601 60.9005C13.1404 65.7018 17.2233 70.1045 22.0528 70.0229C22.3489 75.3084 27.6492 79.0917 32.7306 77.6949C34.3977 83.9918 42.4117 86.1434 47.0095 81.509C49.6206 78.9111 51.6973 77.2729 51.8296 73.3382C56.1443 73.2179 59.8775 69.4307 59.9433 65.1149C64.2994 65.0476 68.0947 61.2476 68.1616 56.8891C72.6807 56.8203 76.599 52.738 76.3887 48.1297L78.8678 45.6486C88.3773 36.1307 88.3773 20.6442 78.8681 11.1265ZM12.491 50.2506L14.8196 47.92C15.4214 47.3177 16.2116 47.0166 17.0022 47.0166C19.7129 46.9985 21.1279 50.353 19.1845 52.2887L16.856 54.6195C13.8418 57.3967 9.71574 53.2686 12.491 50.2506ZM18.9838 61.4836C18.9838 60.6583 19.305 59.8825 19.8879 59.2989L22.2178 56.9673C22.8005 56.3844 23.5751 56.0636 24.3989 56.0636C27.1329 56.0589 28.5186 59.4054 26.5815 61.3374L24.5269 63.3938C23.8989 64.1061 23.0361 64.5881 22.0702 64.5727C20.4115 64.6068 18.9494 63.144 18.9838 61.4836ZM28.3805 71.6192C27.1832 70.4694 27.1832 68.4005 28.3805 67.2507L30.4351 65.1941C31.6329 63.7708 33.7358 63.5855 35.0742 64.92C36.2775 66.1245 36.2775 68.084 35.0742 69.2887L32.7455 71.6194C31.5421 72.8244 29.5839 72.8242 28.3805 71.6192ZM45.4846 75.3213L43.1561 77.6519C42.573 78.2354 41.7979 78.5568 40.9735 78.5568C40.1489 78.5568 39.3737 78.2354 38.7908 77.6519C37.5937 76.5019 37.5932 74.433 38.791 73.2832L41.1194 70.9526C42.3227 69.7479 44.281 69.7479 45.4843 70.9524C46.6819 72.1024 46.6821 74.1713 45.4846 75.3213ZM70.0379 50.5411C68.8889 51.7394 66.8217 51.7396 65.6728 50.5411L53.5457 38.4032L49.692 42.2601L61.8193 54.398C63.0225 55.6025 63.0225 57.5622 61.8193 58.7667C60.6158 59.9717 58.6578 59.9714 57.4542 58.7667L45.5328 46.8347L45.3271 46.629L41.4735 50.4859L41.679 50.6918L53.6006 62.6238C54.8043 63.8283 54.8043 65.7882 53.6006 66.9927C52.3972 68.1973 50.439 68.1973 49.2356 66.9927L49.2331 66.995C47.0189 64.8525 43.9242 64.147 41.1292 64.8786C40.2393 61.2397 36.5845 58.4847 32.9091 58.565C32.7309 54.6481 29.4226 51.1098 25.5127 50.6871C26.0287 43.9671 18.6546 39.3391 12.8352 42.6496C4.73056 35.4036 4.23135 22.6837 11.978 14.9835C19.6801 7.22065 32.4064 7.73502 39.6428 15.8648L32.9057 22.6077L38.3041 28.011C42.451 32.1618 48.8411 32.7329 53.6056 29.7249L70.0384 46.1722C71.2412 47.3765 71.2412 49.3364 70.0379 50.5411ZM75.0145 41.7915L74.1841 42.6225C74.0895 42.5181 73.9919 42.4156 73.8916 42.3153L53.8198 22.2256L51.8928 24.154C49.209 26.8402 44.8418 26.8407 42.1573 24.154L40.6125 22.6077L48.2302 14.9835C66.7345 -2.06276 92.0423 23.283 75.0145 41.7915Z" fill="#27B45F"/>
</svg>
