<svg xmlns="http://www.w3.org/2000/svg" xmlns:xlink="http://www.w3.org/1999/xlink" viewBox="0 0 323.18 214.68"><defs><style>.cls-1{fill:none;}.cls-2{fill:#f1f2f2;}.cls-11,.cls-3{font-size:4px;}.cls-14,.cls-15,.cls-16,.cls-3,.cls-4,.cls-6,.cls-7,.cls-8{fill:#fff;}.cls-11,.cls-3,.cls-8{font-family:Poppins-Medium, Poppins;font-weight:500;}.cls-4{font-size:18px;}.cls-13,.cls-14,.cls-15,.cls-16,.cls-4,.cls-7{font-family:Poppins-Bold, Poppins;font-weight:700;}.cls-13,.cls-5{fill:#337b6e;}.cls-13,.cls-7{font-size:6.61px;}.cls-8{font-size:6px;}.cls-9{fill:#808285;}.cls-10{fill:#cbe3d9;}.cls-11{fill:#231f20;}.cls-12{fill:#414042;}.cls-14{font-size:12px;}.cls-15{font-size:13px;}.cls-16{font-size:5px;}.cls-17,.cls-19{fill:#faa33e;}.cls-18{clip-path:url(#clip-path);}.cls-19{fill-rule:evenodd;}</style><clipPath id="clip-path"><rect class="cls-1" x="154.07" y="58.19" width="15.03" height="15.03"/></clipPath></defs><title>fitur-administrasi-new</title><g id="Layer_2" data-name="Layer 2"><g id="Layer_1-2" data-name="Layer 1"><rect class="cls-2" width="323.18" height="214.68" rx="9.71"/><rect class="cls-2" width="323.18" height="214.68" rx="9.71"/><text class="cls-3" transform="translate(145.98 100.33)">Peraturan Desa</text><text class="cls-4" transform="translate(155.76 90.92)">8</text><path class="cls-5" d="M323.18,9.71V24.15H0V9.71A9.71,9.71,0,0,1,9.71,0H313.47A9.71,9.71,0,0,1,323.18,9.71Z"/><path class="cls-6" d="M17.65,11.56a1.83,1.83,0,0,1-.44.65,2,2,0,0,1-.69.43,2.21,2.21,0,0,1-.87.16H14.14V8.73h1.51a2.41,2.41,0,0,1,.87.16,2,2,0,0,1,.69.42,1.92,1.92,0,0,1,.44.65,2.08,2.08,0,0,1,0,1.6ZM17,10.22a1.29,1.29,0,0,0-.73-.74,1.57,1.57,0,0,0-.58-.1h-.81v2.77h.81a1.57,1.57,0,0,0,.58-.1,1.33,1.33,0,0,0,.44-.28,1.3,1.3,0,0,0,.29-.44,1.47,1.47,0,0,0,.1-.56A1.38,1.38,0,0,0,17,10.22Z"/><path class="cls-6" d="M19.42,8.73V12.8h-.7V8.73Z"/><path class="cls-6" d="M23.81,12.48a3,3,0,0,1-.4.2,2.15,2.15,0,0,1-.45.14,3,3,0,0,1-.52,0,2.39,2.39,0,0,1-.86-.16,2.05,2.05,0,0,1-.67-.44,2,2,0,0,1-.42-.67,2.23,2.23,0,0,1-.15-.83,2.2,2.2,0,0,1,.15-.81,2,2,0,0,1,.43-.67,2.1,2.1,0,0,1,.67-.46,2.14,2.14,0,0,1,.84-.17,3.6,3.6,0,0,1,.49,0,2.34,2.34,0,0,1,.4.11,1.89,1.89,0,0,1,.35.17,2.43,2.43,0,0,1,.32.24l-.45.54a1.37,1.37,0,0,0-.24-.18,1.23,1.23,0,0,0-.25-.14,1.4,1.4,0,0,0-.29-.09,2,2,0,0,0-.36,0,1.31,1.31,0,0,0-.52.11,1.17,1.17,0,0,0-.41.32,1.31,1.31,0,0,0-.28.45,1.54,1.54,0,0,0-.1.56,1.87,1.87,0,0,0,.09.59,1.38,1.38,0,0,0,.29.46,1.19,1.19,0,0,0,.43.3,1.32,1.32,0,0,0,.57.11,1.61,1.61,0,0,0,.54-.08,1.41,1.41,0,0,0,.44-.23v-.76h-1v-.62h1.73v1.71Z"/><path class="cls-6" d="M25.82,8.73V12.8h-.71V8.73Z"/><path class="cls-6" d="M30.43,11.56a1.85,1.85,0,0,1-.45.65,2.07,2.07,0,0,1-.68.43,2.28,2.28,0,0,1-.87.16H26.91V8.73h1.52a2.49,2.49,0,0,1,.87.16,2,2,0,0,1,.68.42,2,2,0,0,1,.45.65,2.08,2.08,0,0,1,0,1.6Zm-.7-1.34a1.31,1.31,0,0,0-.28-.45A1.29,1.29,0,0,0,29,9.48a1.54,1.54,0,0,0-.58-.1h-.8v2.77h.8a1.54,1.54,0,0,0,.58-.1,1.18,1.18,0,0,0,.73-.72,1.47,1.47,0,0,0,.11-.56A1.38,1.38,0,0,0,29.73,10.22Z"/><path class="cls-6" d="M34.46,9.38h-2.3v1h2v.65h-2v1.08h2.33v.65h-3V8.73h3Z"/><path class="cls-6" d="M36,10a.55.55,0,0,0,.15.16,1.42,1.42,0,0,0,.3.14l.48.13.56.18a1.58,1.58,0,0,1,.41.24,1.11,1.11,0,0,1,.25.33,1.06,1.06,0,0,1,.09.45,1.19,1.19,0,0,1-.11.51,1.14,1.14,0,0,1-.3.39,1.48,1.48,0,0,1-.45.24,2.21,2.21,0,0,1-.59.08,2.75,2.75,0,0,1-.9-.16,2.58,2.58,0,0,1-.8-.49l.43-.51a2.55,2.55,0,0,0,.6.39,1.67,1.67,0,0,0,.69.13.82.82,0,0,0,.52-.14.43.43,0,0,0,.2-.37.59.59,0,0,0,0-.2.42.42,0,0,0-.14-.16,1.45,1.45,0,0,0-.28-.14l-.46-.13a5.13,5.13,0,0,1-.58-.17,1.59,1.59,0,0,1-.43-.23,1,1,0,0,1-.26-.34,1.14,1.14,0,0,1-.09-.48A1.09,1.09,0,0,1,35.62,9a1.43,1.43,0,0,1,.44-.24,1.63,1.63,0,0,1,.55-.08,2.3,2.3,0,0,1,.81.13,2.14,2.14,0,0,1,.67.38l-.39.54a2.19,2.19,0,0,0-.55-.31,1.32,1.32,0,0,0-.55-.11.79.79,0,0,0-.49.14.46.46,0,0,0-.17.35A.46.46,0,0,0,36,10Z"/><path class="cls-6" d="M14.58,15.28h-.24V14.16h-.42v-.22H15v.22h-.42Z"/><path class="cls-6" d="M15.32,15.28h-.23v-1h.23v.23a.53.53,0,0,1,.13-.19.41.41,0,0,1,.23-.06v.25h0a.32.32,0,0,0-.14,0,.28.28,0,0,0-.11.08.35.35,0,0,0-.07.12.9.9,0,0,0,0,.18Z"/><path class="cls-6" d="M16.44,15.28v-.13a.28.28,0,0,1-.13.11.38.38,0,0,1-.19,0l-.14,0a.24.24,0,0,1-.11-.06.25.25,0,0,1-.08-.1.28.28,0,0,1,0-.13h0a.32.32,0,0,1,0-.14.39.39,0,0,1,.08-.1.31.31,0,0,1,.13-.06l.17,0h.15l.13,0v0a.2.2,0,0,0-.07-.16.24.24,0,0,0-.18-.06l-.16,0-.13,0-.06-.18a.49.49,0,0,1,.17-.06.68.68,0,0,1,.21,0,.41.41,0,0,1,.33.11.39.39,0,0,1,.11.31v.6Zm0-.43-.1,0h-.13a.39.39,0,0,0-.17,0A.14.14,0,0,0,16,15h0a.14.14,0,0,0,0,.11.33.33,0,0,0,.14,0l.11,0,.08,0a.13.13,0,0,0,.06-.07.24.24,0,0,0,0-.09Z"/><path class="cls-6" d="M17.18,15.28H17v-1h.23v.16l.05-.07.07-.06.09,0h.1a.33.33,0,0,1,.27.1.44.44,0,0,1,.09.29v.64h-.23v-.57a.24.24,0,0,0-.06-.18.17.17,0,0,0-.15-.07.21.21,0,0,0-.17.07.24.24,0,0,0-.06.18Z"/><path class="cls-6" d="M18.82,15.12a.25.25,0,0,1-.08.1l-.12.06-.14,0a.57.57,0,0,1-.22,0,.7.7,0,0,1-.21-.11l.1-.16a.7.7,0,0,0,.17.09l.16,0,.12,0a.09.09,0,0,0,0-.08h0s0,0,0-.05l-.05,0a.09.09,0,0,0-.07,0l-.09,0-.11,0-.1-.05a.27.27,0,0,1-.07-.08.28.28,0,0,1,0-.13h0a.28.28,0,0,1,0-.13.22.22,0,0,1,.07-.09l.12-.07.14,0a.63.63,0,0,1,.19,0,.51.51,0,0,1,.18.09l-.09.16-.15-.07-.14,0a.15.15,0,0,0-.1,0,.07.07,0,0,0,0,.07h0a.08.08,0,0,0,0,.05l.05,0,.07,0,.09,0,.11,0,.1.06a.27.27,0,0,1,.07.08.21.21,0,0,1,0,.12h0A.32.32,0,0,1,18.82,15.12Z"/><path class="cls-6" d="M19.64,14.28v.19h-.27v.81h-.23v-.81H19v-.19h.13V14.2a.37.37,0,0,1,.08-.25.32.32,0,0,1,.23-.08h.1l.09,0v.19H19.5c-.09,0-.13,0-.13.15v.06Z"/><path class="cls-6" d="M20.76,15a.45.45,0,0,1-.11.17.71.71,0,0,1-.17.11.52.52,0,0,1-.21,0,.54.54,0,0,1-.22,0,.48.48,0,0,1-.28-.28.45.45,0,0,1,0-.2.52.52,0,0,1,0-.21.64.64,0,0,1,.11-.16.66.66,0,0,1,.17-.12.54.54,0,0,1,.22,0,.46.46,0,0,1,.21,0,.56.56,0,0,1,.17.11.66.66,0,0,1,.12.17.65.65,0,0,1,0,.2A.46.46,0,0,1,20.76,15Zm-.21-.33-.06-.1a.23.23,0,0,0-.1-.07l-.12,0a.28.28,0,0,0-.13,0,.16.16,0,0,0-.09.07.36.36,0,0,0-.07.1.5.5,0,0,0,0,.12.28.28,0,0,0,0,.13.24.24,0,0,0,.06.11l.1.07.12,0,.13,0,.09-.07a.24.24,0,0,0,.06-.11.25.25,0,0,0,0-.12A.27.27,0,0,0,20.55,14.65Z"/><path class="cls-6" d="M21.27,15.28H21v-1h.23v.23a.55.55,0,0,1,.14-.19.38.38,0,0,1,.22-.06v.25h0a.32.32,0,0,0-.14,0,.28.28,0,0,0-.11.08.35.35,0,0,0-.07.12.48.48,0,0,0,0,.18Z"/><path class="cls-6" d="M22.81,14.3a.46.46,0,0,1,.2-.05.33.33,0,0,1,.26.1.42.42,0,0,1,.1.29v.64h-.24v-.57a.36.36,0,0,0-.05-.19.2.2,0,0,0-.15-.06.2.2,0,0,0-.16.07.24.24,0,0,0-.06.18v.57h-.23v-.57a.36.36,0,0,0-.05-.19.2.2,0,0,0-.15-.06.19.19,0,0,0-.16.07.24.24,0,0,0-.06.18v.57h-.23v-1h.23v.15l.06-.06.06-.06.09,0h.1a.35.35,0,0,1,.18.05.3.3,0,0,1,.12.13A.43.43,0,0,1,22.81,14.3Z"/><path class="cls-6" d="M24.26,15.28v-.13a.35.35,0,0,1-.13.11.4.4,0,0,1-.2,0l-.13,0a.27.27,0,0,1-.12-.06.39.39,0,0,1-.08-.1.51.51,0,0,1,0-.13h0a.32.32,0,0,1,0-.14.25.25,0,0,1,.08-.1.31.31,0,0,1,.13-.06l.16,0h.16l.12,0v0a.2.2,0,0,0-.06-.16.27.27,0,0,0-.19-.06l-.15,0-.13,0-.07-.18.18-.06a.62.62,0,0,1,.21,0,.41.41,0,0,1,.33.11.43.43,0,0,1,.11.31v.6Zm0-.43-.11,0H24a.35.35,0,0,0-.17,0,.13.13,0,0,0-.07.12h0a.13.13,0,0,0,.06.11.29.29,0,0,0,.14,0l.11,0,.08,0,.06-.07a.24.24,0,0,0,0-.09Z"/><path class="cls-6" d="M25.46,15.12a.39.39,0,0,1-.08.1l-.12.06-.15,0a.57.57,0,0,1-.22,0,1.06,1.06,0,0,1-.21-.11l.11-.16a.65.65,0,0,0,.16.09.51.51,0,0,0,.17,0l.11,0a.09.09,0,0,0,0-.08h0a.09.09,0,0,0,0-.05l-.05,0a.13.13,0,0,0-.08,0l-.08,0-.11,0-.11-.05-.07-.08a.28.28,0,0,1,0-.13h0a.28.28,0,0,1,0-.13.18.18,0,0,1,.08-.09.41.41,0,0,1,.11-.07l.14,0a.58.58,0,0,1,.19,0,.51.51,0,0,1,.18.09l-.09.16-.15-.07-.13,0a.18.18,0,0,0-.11,0,.08.08,0,0,0,0,.07h0a.08.08,0,0,0,0,.05l.05,0,.08,0,.08,0,.11,0,.1.06.08.08a.21.21,0,0,1,0,.12h0A.32.32,0,0,1,25.46,15.12Z"/><path class="cls-6" d="M25.72,14.12V13.9H26v.22Zm0,1.16v-1H26v1Z"/><path class="cls-6" d="M28,14.87a.55.55,0,0,1-.14.22.75.75,0,0,1-.52.19h-.49V13.94h.49a.75.75,0,0,1,.52.19.6.6,0,0,1,.14.21.63.63,0,0,1,.06.27A.58.58,0,0,1,28,14.87Zm-.22-.44a.78.78,0,0,0-.1-.15.42.42,0,0,0-.14-.09.65.65,0,0,0-.2,0H27.1v.92h.26a.45.45,0,0,0,.2,0,.42.42,0,0,0,.14-.09.71.71,0,0,0,.1-.14.58.58,0,0,0,0-.19A.52.52,0,0,0,27.8,14.43Z"/><path class="cls-6" d="M28.34,14.12V13.9h.25v.22Zm0,1.16v-1h.23v1Z"/><path class="cls-6" d="M29.73,15.46a.55.55,0,0,1-.4.13.84.84,0,0,1-.45-.12l.08-.18a.65.65,0,0,0,.17.08.58.58,0,0,0,.19,0,.35.35,0,0,0,.24-.08.32.32,0,0,0,.08-.23V15a.5.5,0,0,1-.15.14.39.39,0,0,1-.2,0l-.18,0a.33.33,0,0,1-.14-.1.45.45,0,0,1-.14-.34.46.46,0,0,1,0-.21.45.45,0,0,1,.1-.14.31.31,0,0,1,.15-.1.48.48,0,0,1,.38,0,.81.81,0,0,1,.14.12v-.15h.23v.8A.5.5,0,0,1,29.73,15.46Zm-.11-.85-.06-.09-.1,0a.22.22,0,0,0-.11,0,.25.25,0,0,0-.12,0l-.09,0-.06.09a.36.36,0,0,0,0,.11.5.5,0,0,0,0,.12l.06.09.1.05a.2.2,0,0,0,.11,0,.22.22,0,0,0,.11,0l.1-.05.06-.09a.22.22,0,0,0,0-.11A.23.23,0,0,0,29.62,14.61Z"/><path class="cls-6" d="M30.16,14.12V13.9h.25v.22Zm0,1.16v-1h.24v1Z"/><path class="cls-6" d="M31,15a.13.13,0,0,0,0,.1.12.12,0,0,0,.09,0,.32.32,0,0,0,.14,0v.18l-.09,0-.11,0-.12,0-.1,0-.06-.09a.52.52,0,0,1,0-.14v-.53h-.12v-.2h.12V14H31v.28h.27v.2H31Z"/><path class="cls-6" d="M32.11,15.28v-.13a.38.38,0,0,1-.14.11.36.36,0,0,1-.19,0l-.14,0a.24.24,0,0,1-.11-.06.39.39,0,0,1-.08-.1.28.28,0,0,1,0-.13h0a.32.32,0,0,1,0-.14.28.28,0,0,1,.09-.1.23.23,0,0,1,.13-.06l.16,0H32l.13,0v0a.18.18,0,0,0-.07-.16.24.24,0,0,0-.18-.06l-.15,0-.14,0-.06-.18a.49.49,0,0,1,.17-.06.68.68,0,0,1,.21,0,.45.45,0,0,1,.34.11.43.43,0,0,1,.1.31v.6Zm0-.43-.1,0h-.13a.39.39,0,0,0-.17,0,.14.14,0,0,0-.06.12h0a.13.13,0,0,0,.06.11.25.25,0,0,0,.13,0l.11,0,.08,0a.13.13,0,0,0,.06-.07.24.24,0,0,0,0-.09Z"/><path class="cls-6" d="M32.62,15.28v-1.4h.24v1.4Z"/><path class="cls-6" d="M34.91,14.87a.55.55,0,0,1-.14.22.75.75,0,0,1-.52.19h-.49V13.94h.49a.75.75,0,0,1,.52.19.6.6,0,0,1,.14.21.62.62,0,0,1,.05.27A.58.58,0,0,1,34.91,14.87Zm-.23-.44a.46.46,0,0,0-.09-.15.38.38,0,0,0-.15-.09.53.53,0,0,0-.19,0H34v.92h.26a.38.38,0,0,0,.19,0,.38.38,0,0,0,.15-.09.42.42,0,0,0,.09-.14.41.41,0,0,0,0-.19A.37.37,0,0,0,34.68,14.43Z"/><path class="cls-6" d="M35.5,15.05a.29.29,0,0,0,.19.06.33.33,0,0,0,.15,0L36,15l.14.12a.49.49,0,0,1-.18.14.54.54,0,0,1-.24.05.45.45,0,0,1-.2,0,.44.44,0,0,1-.16-.1.39.39,0,0,1-.11-.17.46.46,0,0,1,0-.21.71.71,0,0,1,0-.21.46.46,0,0,1,.11-.16.44.44,0,0,1,.15-.12.45.45,0,0,1,.2,0,.46.46,0,0,1,.21,0,.44.44,0,0,1,.15.12.51.51,0,0,1,.09.18.64.64,0,0,1,0,.2v.07H35.4A.32.32,0,0,0,35.5,15.05Zm.41-.35a.36.36,0,0,0,0-.1.22.22,0,0,0,0-.08.16.16,0,0,0-.08-.06l-.1,0a.24.24,0,0,0-.18.07.33.33,0,0,0-.08.19Z"/><path class="cls-6" d="M37.07,15.12a.39.39,0,0,1-.08.1l-.12.06-.15,0a.6.6,0,0,1-.22,0,1.06,1.06,0,0,1-.21-.11L36.4,15a.65.65,0,0,0,.16.09l.17,0,.11,0a.09.09,0,0,0,0-.08h0a.09.09,0,0,0,0-.05l0,0a.11.11,0,0,0-.08,0l-.08,0-.11,0a.31.31,0,0,1-.1-.05l-.08-.08a.28.28,0,0,1,0-.13h0a.28.28,0,0,1,0-.13.24.24,0,0,1,.08-.09.41.41,0,0,1,.11-.07l.14,0a.69.69,0,0,1,.2,0,.56.56,0,0,1,.17.09l-.09.16-.15-.07-.13,0a.18.18,0,0,0-.11,0,.08.08,0,0,0,0,.07h0a.07.07,0,0,0,0,.05l.06,0,.07,0,.08,0,.11,0,.1.06.08.08a.21.21,0,0,1,0,.12h0A.32.32,0,0,1,37.07,15.12Z"/><path class="cls-6" d="M38,15.28v-.13a.45.45,0,0,1-.13.11.42.42,0,0,1-.2,0l-.14,0a.24.24,0,0,1-.11-.06.39.39,0,0,1-.08-.1.28.28,0,0,1,0-.13h0a.32.32,0,0,1,0-.14.28.28,0,0,1,.09-.1.26.26,0,0,1,.13-.06l.16,0h.16l.12,0v0a.2.2,0,0,0-.06-.16.29.29,0,0,0-.19-.06l-.15,0-.14,0-.06-.18a.58.58,0,0,1,.17-.06.68.68,0,0,1,.21,0,.39.39,0,0,1,.45.42v.6Zm0-.43-.1,0h-.13a.39.39,0,0,0-.17,0,.14.14,0,0,0-.06.12h0a.13.13,0,0,0,.06.11.29.29,0,0,0,.14,0l.1,0,.09,0a.18.18,0,0,0,0-.07.13.13,0,0,0,0-.09Z"/><line class="cls-6" x1="11.97" y1="13.06" x2="11.97" y2="12.98"/><path class="cls-6" d="M8.17,13.35s0,0,0,.07S8.17,13.37,8.17,13.35Z"/><path class="cls-6" d="M8.18,13.42a.14.14,0,0,1,0,.07A.14.14,0,0,0,8.18,13.42Z"/><path class="cls-6" d="M8.14,13.16v0Z"/><path class="cls-6" d="M8.14,13.14a.49.49,0,0,1,0-.12v0A.22.22,0,0,0,8.14,13.14Z"/><path class="cls-6" d="M8.13,13v0Z"/><path class="cls-6" d="M8.13,13a1.71,1.71,0,0,1,.37-1.07A1.71,1.71,0,0,0,8.13,13v0Z"/><path class="cls-6" d="M8.15,13.25v-.06S8.15,13.23,8.15,13.25Z"/><path class="cls-6" d="M8.14,13.19v0Z"/><path class="cls-6" d="M8.37,13.86l.11.17Z"/><path class="cls-6" d="M8.52,11.87l.06-.06Z"/><path class="cls-6" d="M10.88,11l-.06-.07h0l0,0h0l-.07,0h0l-.11,0h-.06l-.19-.05H9.78A2.28,2.28,0,0,0,7.58,13v.23a.28.28,0,0,1,0,.09v0a.17.17,0,0,0,0,.07v.06l0,.1v.1l0,0,0,.08v0a.61.61,0,0,0,0,.12v0a.25.25,0,0,1,0,.07v0h0l0,.05,0,0h0l0,0h0l0,0,0,0v0l0,0v0l0,0h0l0,0,0,0h0l0,0h0l0,0,0,0,0,0,0,0,.07.06h0l0,0,0,0,0,0h0l0,0h0l0,0h0l0,0,0,0,0,0h0l.08,0,0,0h0l0,0h0l0,0h0l.08,0H9l0,0h.09l0,0h.23l.1,0h.06A.26.26,0,0,0,9.78,15h0a.32.32,0,0,0,0-.14s0-.05-.06-.06h0l0,0h0l-.07,0h0l-.07,0H9.38a1.66,1.66,0,0,1-.31-.12l0,0a1.18,1.18,0,0,1-.19-.11l0,0,0,0,0,0,0,0h0l0,0,0,0,0,0,0,0,0,0,0,0,0,0,0,0,0,0-.11-.17,0,0v-.05l0,0,0-.05,0-.08v-.06h0v-.06a.14.14,0,0,0,0-.07s0-.05,0-.07v-.1a1.23,1.23,0,0,1,0-.27,1.71,1.71,0,0,1,.37-1.07l0,0,.06-.06.05-.06a1.69,1.69,0,0,1,1.15-.5h.48l.06,0h.2l0,0h.09a.26.26,0,0,0,.27-.26h0A.32.32,0,0,0,10.88,11Z"/><rect class="cls-6" x="11.24" y="8.56" width="0.56" height="6.69" rx="0.26"/><path class="cls-6" d="M10.07,13.06a.28.28,0,0,0-.29.28.29.29,0,0,0,.29.28h.28V15a.28.28,0,0,0,.28.28.27.27,0,0,0,.28-.28V13.06Z"/><g id="Layer_1-2-2" data-name="Layer 1-2"><path class="cls-6" d="M54.76,8.33a.21.21,0,0,1-.15-.07,4,4,0,0,0-4.34-1.09.18.18,0,1,1-.18-.31l0,0A4.32,4.32,0,0,1,54.89,8a.17.17,0,0,1,0,.25.15.15,0,0,1-.11,0Z"/><path class="cls-6" d="M54.8,8.38h-.53a.18.18,0,1,1,0-.36h.36V7.66a.19.19,0,0,1,.18-.19.19.19,0,0,1,.18.19v.52a.18.18,0,0,1-.16.2Z"/><path class="cls-6" d="M60.61,16.29H51.76a.55.55,0,0,1-.55-.55v-6a.55.55,0,0,1,.55-.55h8.85a.55.55,0,0,1,.54.55v6A.55.55,0,0,1,60.61,16.29ZM51.76,9.6a.19.19,0,0,0-.19.18v6a.2.2,0,0,0,.19.19h8.85a.19.19,0,0,0,.18-.19v-6a.18.18,0,0,0-.18-.18Z"/><rect class="cls-6" x="52.64" y="10.8" width="3.03" height="0.79"/><rect class="cls-6" x="52.64" y="12.36" width="3.03" height="0.79"/><rect class="cls-6" x="52.64" y="13.92" width="3.03" height="0.79"/><rect class="cls-6" x="56.7" y="10.8" width="3.03" height="0.79"/><rect class="cls-6" x="56.7" y="12.36" width="1.22" height="0.79"/><rect class="cls-6" x="58.51" y="12.36" width="1.22" height="0.79"/><rect class="cls-6" x="56.7" y="13.92" width="3.03" height="0.79"/><path class="cls-6" d="M50.21,14.89h0a2,2,0,0,1-1.54-1.08.18.18,0,0,1,0-.25.18.18,0,0,1,.25.06.05.05,0,0,1,0,0,1.64,1.64,0,0,0,1.24.87.18.18,0,0,1,.16.2A.18.18,0,0,1,50.21,14.89Z"/><path class="cls-6" d="M48.63,14.3h-.05a.17.17,0,0,1-.14-.21h0l.12-.45a.17.17,0,0,1,.18-.13l.52,0a.18.18,0,0,1,.17.18h0a.19.19,0,0,1-.19.17l-.36,0-.07.3A.17.17,0,0,1,48.63,14.3Z"/><path class="cls-6" d="M52.86,13.16h-4A.18.18,0,0,1,48.7,13V7.91a.18.18,0,0,1,.18-.18H52a.18.18,0,0,1,.18.18v.73h.72a.18.18,0,0,1,.18.18V13A.18.18,0,0,1,52.86,13.16Zm-3.8-.36h3.62V9H52a.18.18,0,0,1-.18-.18V8.09H49.06Z"/><path class="cls-6" d="M52.86,9H52a.18.18,0,0,1-.18-.18V7.91a.18.18,0,0,1,.11-.17.2.2,0,0,1,.2,0l.9.91a.18.18,0,0,1,0,.2A.19.19,0,0,1,52.86,9Zm-.72-.36h.29l-.29-.29Z"/><path class="cls-6" d="M50.72,9.49h-.9a.18.18,0,1,1,0-.36h.9a.18.18,0,1,1,0,.36Z"/><path class="cls-6" d="M51.54,10.21H49.82a.18.18,0,1,1,0-.36h1.72a.18.18,0,0,1,0,.36Z"/></g><text class="cls-7" transform="translate(64.2 14.72)">Administrasi</text><path class="cls-6" d="M312.11,12.07a7.35,7.35,0,1,1-7.35-7.34A7.29,7.29,0,0,1,312.11,12.07Z"/><text class="cls-8" transform="translate(257.36 14.07)">Digital Desa</text><circle class="cls-9" cx="304.76" cy="10.59" r="2.95"/><path class="cls-9" d="M310.13,17.08a7.32,7.32,0,0,1-10.73,0,5.46,5.46,0,0,1,3.12-3.91,5.47,5.47,0,0,1,4.48,0A5.47,5.47,0,0,1,310.13,17.08Z"/><rect class="cls-10" y="24.15" width="323.18" height="15.65"/><text class="cls-11" transform="translate(17.06 32.51)">Beranda</text><text class="cls-11" transform="translate(87.99 32.51)">Penduduk</text><text class="cls-11" transform="translate(128.26 32.51)">Keuangan</text><text class="cls-11" transform="translate(169.18 32.51)">Pembangunan</text><text class="cls-11" transform="translate(219.42 32.51)">Kelembagaan</text><text class="cls-11" transform="translate(54.32 32.51)">Umum</text><polygon class="cls-12" points="70.57 30.74 70.71 30.74 71.92 32.22 73.13 30.74 73.28 30.74 71.92 32.39 70.57 30.74"/><polygon class="cls-12" points="110.6 30.74 110.74 30.74 111.95 32.22 113.17 30.74 113.31 30.74 111.95 32.39 110.6 30.74"/><polygon class="cls-12" points="151.11 30.74 151.26 30.74 152.47 32.22 153.68 30.74 153.83 30.74 152.47 32.39 151.11 30.74"/><polygon class="cls-12" points="201.11 30.74 201.26 30.74 202.47 32.22 203.68 30.74 203.83 30.74 202.47 32.39 201.11 30.74"/><polygon class="cls-12" points="250.11 30.74 250.26 30.74 251.47 32.22 252.68 30.74 252.83 30.74 251.47 32.39 250.11 30.74"/><text class="cls-13" transform="translate(127.32 52.74)">ADMINISTRASI UMUM</text><rect class="cls-5" x="40.06" y="64.28" width="67.69" height="38.59" rx="3.34"/><rect class="cls-5" x="127.75" y="64.28" width="67.69" height="38.59" rx="3.34"/><rect class="cls-5" x="215.43" y="64.28" width="67.69" height="38.59" rx="3.34"/><rect class="cls-5" x="40.06" y="111.04" width="67.69" height="38.59" rx="3.34"/><rect class="cls-5" x="127.75" y="111.04" width="67.69" height="38.59" rx="3.34"/><text class="cls-3" transform="translate(148.11 146.75)">Buku Agenda</text><text class="cls-4" transform="translate(145.07 137.34)">592</text><rect class="cls-5" x="215.43" y="111.04" width="67.69" height="38.59" rx="3.34"/><text class="cls-3" transform="translate(234.09 146.75)">Surat Ekspedisi</text><text class="cls-4" transform="translate(245.89 137.34)">1</text><rect class="cls-5" x="40.06" y="157.8" width="67.69" height="38.59" rx="3.34"/><rect class="cls-5" x="127.75" y="157.8" width="67.69" height="38.59" rx="3.34"/><rect class="cls-5" x="215.43" y="157.8" width="67.69" height="38.59" rx="3.34"/><text class="cls-3" transform="translate(58.3 100.33)">Peraturan Desa</text><text class="cls-4" transform="translate(68.07 90.92)">8</text><text class="cls-3" transform="translate(137.46 100.33)">Keputusan Kepala Desa</text><text class="cls-4" transform="translate(152.11 90.92)">41</text><text class="cls-3" transform="translate(49.09 146.75)">Aparat Pemerintah Desa</text><text class="cls-4" transform="translate(69.09 137.34)">7</text><text class="cls-3" transform="translate(49.52 193.72)">Lembaran &amp; Berita Desa</text><text class="cls-4" transform="translate(64.69 184.31)">18</text><text class="cls-3" transform="translate(145.35 193.72)">Tanah Kas Desa</text><text class="cls-14" transform="translate(140.09 183.31)">2500m</text><text class="cls-3" transform="translate(232.11 193.72)">Luas Tanah Desa</text><text class="cls-15" transform="translate(225.45 183.31)">5000m</text><text class="cls-3" transform="translate(233.71 100.33)">Inventaris Desa</text><text class="cls-4" transform="translate(240.75 90.92)">21</text><text class="cls-16" transform="translate(183.26 178.07)">2</text><text class="cls-16" transform="translate(272.89 177.09)">2</text><path class="cls-17" d="M69.76,68v.52a.24.24,0,0,1-.07.18.28.28,0,0,1-.19.07H69a.28.28,0,0,1-.19-.07.24.24,0,0,1-.07-.18V68a.24.24,0,0,1,.07-.18.28.28,0,0,1,.19-.07h.51a.28.28,0,0,1,.19.07A.24.24,0,0,1,69.76,68Zm0-2v.51a.24.24,0,0,1-.07.18.29.29,0,0,1-.19.08H69a.29.29,0,0,1-.19-.08.24.24,0,0,1-.07-.18V66a.24.24,0,0,1,.07-.18.29.29,0,0,1,.19-.08h.51a.29.29,0,0,1,.19.08A.24.24,0,0,1,69.76,66Zm0-2v.51a.24.24,0,0,1-.07.18.29.29,0,0,1-.19.08H69a.29.29,0,0,1-.19-.08.24.24,0,0,1-.07-.18v-.51a.24.24,0,0,1,.07-.18.25.25,0,0,1,.19-.08h.51a.25.25,0,0,1,.19.08A.24.24,0,0,1,69.76,63.92ZM79.08,68v.52a.24.24,0,0,1-.07.18.28.28,0,0,1-.19.07H71.06a.24.24,0,0,1-.18-.07.22.22,0,0,1-.08-.18V68a.22.22,0,0,1,.08-.18.24.24,0,0,1,.18-.07h7.76a.28.28,0,0,1,.19.07A.24.24,0,0,1,79.08,68Zm0-2v.51a.24.24,0,0,1-.07.18.29.29,0,0,1-.19.08H71.06a.25.25,0,0,1-.18-.08.22.22,0,0,1-.08-.18V66a.22.22,0,0,1,.08-.18.25.25,0,0,1,.18-.08h7.76a.29.29,0,0,1,.19.08A.24.24,0,0,1,79.08,66Zm0-2v.51a.24.24,0,0,1-.07.18.29.29,0,0,1-.19.08H71.06a.25.25,0,0,1-.18-.08.22.22,0,0,1-.08-.18v-.51a.27.27,0,0,1,.26-.26h7.76a.25.25,0,0,1,.19.08A.24.24,0,0,1,79.08,63.92Zm1,5.64V62.89a.27.27,0,0,0-.26-.26H68a.27.27,0,0,0-.26.26v6.67a.25.25,0,0,0,.08.18.22.22,0,0,0,.18.08H79.86a.22.22,0,0,0,.18-.08A.25.25,0,0,0,80.12,69.56Zm1-8.73v8.73a1.2,1.2,0,0,1-.38.91,1.25,1.25,0,0,1-.91.38H68a1.24,1.24,0,0,1-.91-.38,1.2,1.2,0,0,1-.38-.91V60.83a1.19,1.19,0,0,1,.38-.9,1.24,1.24,0,0,1,.91-.38H79.86a1.25,1.25,0,0,1,.91.38A1.19,1.19,0,0,1,81.15,60.83Z"/><g class="cls-18"><path class="cls-19" d="M167.7,61H155.48a.51.51,0,0,0-.33.13.48.48,0,0,0-.14.34v8.45a.44.44,0,0,0,.14.33.47.47,0,0,0,.33.14H167.7a.47.47,0,0,0,.33-.14.44.44,0,0,0,.14-.33V61.48a.48.48,0,0,0-.14-.34A.51.51,0,0,0,167.7,61Zm-12.22-.94a1.37,1.37,0,0,0-1,.41,1.38,1.38,0,0,0-.42,1v8.45a1.42,1.42,0,0,0,1.41,1.41H167.7a1.42,1.42,0,0,0,1.41-1.41V61.48a1.38,1.38,0,0,0-.42-1,1.37,1.37,0,0,0-1-.41Z"/><path class="cls-19" d="M158.77,65.7a.48.48,0,0,1,.47-.47h6.58a.48.48,0,0,1,.47.47.48.48,0,0,1-.14.34.51.51,0,0,1-.33.13h-6.58a.51.51,0,0,1-.33-.13A.48.48,0,0,1,158.77,65.7Zm0-2.35a.48.48,0,0,1,.47-.47h6.58a.48.48,0,0,1,.47.47.48.48,0,0,1-.14.34.51.51,0,0,1-.33.13h-6.58a.51.51,0,0,1-.33-.13A.48.48,0,0,1,158.77,63.35Zm0,4.7a.48.48,0,0,1,.47-.47h6.58a.48.48,0,0,1,.47.47.44.44,0,0,1-.14.33.47.47,0,0,1-.33.14h-6.58a.47.47,0,0,1-.33-.14A.44.44,0,0,1,158.77,68.05Z"/><path class="cls-17" d="M157.36,63.82a.47.47,0,0,0,.47-.47.47.47,0,1,0-.94,0A.47.47,0,0,0,157.36,63.82Z"/><path class="cls-17" d="M157.36,66.17a.47.47,0,1,0-.47-.47A.47.47,0,0,0,157.36,66.17Z"/><path class="cls-17" d="M157.36,68.52a.47.47,0,1,0-.47-.47A.47.47,0,0,0,157.36,68.52Z"/></g><path class="cls-17" d="M250.56,68.15h1.72v1.72h-1.72Z"/><path class="cls-17" d="M253.57,68.15h1.72v1.72h-1.72Z"/><path class="cls-17" d="M250.56,65.14h1.72v1.72h-1.72Z"/><path class="cls-17" d="M253.57,65.14h1.72v1.72h-1.72Z"/><path class="cls-17" d="M249.71,68.15h-5.59v-6h10.31v2.15h.86V62.13a.88.88,0,0,0-.25-.61.86.86,0,0,0-.61-.25h-2.58V59.55a.86.86,0,0,0-.25-.6.87.87,0,0,0-.61-.26h-3.43A.87.87,0,0,0,247,59a.86.86,0,0,0-.25.6v1.72h-2.58a.86.86,0,0,0-.61.25.88.88,0,0,0-.25.61v6a.85.85,0,0,0,.86.86h5.59Zm-2.15-8.6H251v1.72h-3.43Z"/><path class="cls-17" d="M74.94,111.45a2.94,2.94,0,0,1,3,3V118H72V114.4a2.94,2.94,0,0,1,3-3Zm-4,1.77a4.09,4.09,0,0,0-.16,1V118H69v-2.66a2.07,2.07,0,0,1,.53-1.38,2.1,2.1,0,0,1,1.31-.68H71Zm7.94,0a2.13,2.13,0,0,1,1.38.65,2.08,2.08,0,0,1,.56,1.42V118H79.08V114.4A4.21,4.21,0,0,0,78.91,113.22Zm-7.81-3.54a1.44,1.44,0,0,1,1,.43,1.47,1.47,0,0,1,.44,1,1.48,1.48,0,0,1-3,0,1.47,1.47,0,0,1,.44-1A1.44,1.44,0,0,1,71.1,109.68Zm7.68,0a1.48,1.48,0,0,1,1,.43,1.5,1.5,0,0,1,.43,1,1.47,1.47,0,0,1-1.48,1.48,1.49,1.49,0,0,1-1.48-1.48,1.47,1.47,0,0,1,.44-1A1.44,1.44,0,0,1,78.78,109.68Zm-3.84-3.55a2.36,2.36,0,0,1,1.67.69,2.38,2.38,0,0,1,0,3.35,2.37,2.37,0,0,1-3.34,0,2.38,2.38,0,0,1,0-3.35A2.36,2.36,0,0,1,74.94,106.13Z"/><path class="cls-17" d="M165.53,107.44h1.31V118h-8.53a2,2,0,0,1-2-2V108.1a2,2,0,0,1,2-2h5.91v9.19h-5.91a.67.67,0,0,0-.66.66.66.66,0,0,0,.66.65h7.22Z"/><path class="cls-17" d="M256.06,110.58a.17.17,0,0,1,.27.14v5.79a1.33,1.33,0,0,1-1.32,1.35H243.54a1.33,1.33,0,0,1-1.32-1.35v-5.79a.17.17,0,0,1,.27-.13c.62.49,1.43,1.12,4.25,3.21.58.44,1.56,1.36,2.54,1.35s2-.93,2.54-1.35C254.63,111.71,255.45,111.08,256.06,110.58Zm-6.78,3.66c.64,0,1.56-.82,2-1.17,3.66-2.73,3.93-3,4.78-3.64a.69.69,0,0,0,.25-.54v-.54A1.33,1.33,0,0,0,255,107H243.54a1.33,1.33,0,0,0-1.32,1.35v.54a.73.73,0,0,0,.25.54c.85.67,1.13.91,4.78,3.64C247.72,113.42,248.64,114.25,249.28,114.24Z"/><path class="cls-17" d="M73.9,157.23H71.45v2.48H73.9Zm.82,4.13v.83H70.63v-.83Zm0-5v4.14H70.63V156.4Zm4.1,5v.83H75.54v-.83Zm0-1.65v.83H75.54v-.83Zm0-1.65v.82H75.54v-.82Zm0-1.66v.83H75.54v-.83ZM69,162.6v-6.2h-.82v6.2a.39.39,0,0,0,.13.29.35.35,0,0,0,.28.13.37.37,0,0,0,.29-.13A.38.38,0,0,0,69,162.6Zm10.64,0v-7H69.81v7a1.2,1.2,0,0,1-.07.42h9.49a.35.35,0,0,0,.28-.13A.38.38,0,0,0,79.63,162.6Zm.82-7.85v7.85a1.19,1.19,0,0,1-.36.88,1.15,1.15,0,0,1-.86.36H68.58a1.19,1.19,0,0,1-.87-.36,1.22,1.22,0,0,1-.35-.88v-7H69v-.83Z"/><path class="cls-17" d="M166.26,160.53a12.54,12.54,0,0,0-5-1c-1.09,0-1.77-1.9-1.95-3.14l.7-1.2a1.87,1.87,0,0,1,.66-.65,1.84,1.84,0,0,1,1.78,0,1.87,1.87,0,0,1,.66.65Zm1,1.7.08.14a1.77,1.77,0,0,1,.25.9,1.81,1.81,0,0,1-.24.9,1.79,1.79,0,0,1-.65.66,1.81,1.81,0,0,1-.9.24h-8.41a1.82,1.82,0,0,1-.91-.24,1.79,1.79,0,0,1-.65-.66,1.81,1.81,0,0,1-.24-.9,1.77,1.77,0,0,1,.25-.9l2.7-4.59c.25,1.65,1.29,3,2.75,3A12.22,12.22,0,0,1,167.26,162.23Z"/><path class="cls-17" d="M243.81,156.42l3.83-1.61,3.27,1.61,3.45-1.45a.3.3,0,0,1,.13,0,.28.28,0,0,1,.13,0,.43.43,0,0,1,.09.1.28.28,0,0,1,0,.13v8.71l-3.83,1.61-3.27-1.61-3.45,1.45-.13,0a.26.26,0,0,1-.12-.05.2.2,0,0,1-.09-.09.22.22,0,0,1,0-.13Zm2.19,3.22v1.07h1.09v-1.07Zm2.18,0v1.07h1.1v-1.07Zm3.28,0-.67-.66-.58.57.67.66-.67.67.57.57.68-.67.68.67.58-.57-.68-.67.68-.66-.58-.57-.68.66Z"/></g></g></svg>